<?xml version="1.0" encoding="UTF-8"?>
<svg xmlns="http://www.w3.org/2000/svg" xmlns:xlink="http://www.w3.org/1999/xlink" width="30px" height="30px" viewBox="0 0 150 150" version="1.1">
<g id="surface1">
<path style=" stroke:none;fill-rule:nonzero;fill:rgb(34.117647%,67.058824%,75.686275%);fill-opacity:1;" d="M 118.894531 59.472656 C 118.894531 90.753906 93.539062 116.113281 62.257812 116.113281 C 30.972656 116.113281 5.617188 90.753906 5.617188 59.472656 C 5.617188 28.191406 30.972656 2.832031 62.257812 2.832031 C 93.539062 2.832031 118.894531 28.191406 118.894531 59.472656 Z M 118.894531 59.472656 "/>
<path style="fill:none;stroke-width:2;stroke-linecap:round;stroke-linejoin:miter;stroke:rgb(33.333333%,37.647059%,50.196078%);stroke-opacity:1;stroke-miterlimit:10;" d="M 35.437564 35.797568 L 50.982534 51.965991 " transform="matrix(2.832005,0,0,2.832005,0,0.000000000000010055)"/>
<path style=" stroke:none;fill-rule:nonzero;fill:rgb(48.627451%,79.607843%,84.705882%);fill-opacity:1;" d="M 8.5 77.179688 C 10.902344 84.492188 14.84375 91.390625 20.300781 97.417969 L 100.203125 17.519531 C 94.171875 12.058594 87.277344 8.121094 79.964844 5.71875 Z M 8.5 77.179688 "/>
<path style=" stroke:none;fill-rule:nonzero;fill:rgb(33.333333%,37.647059%,50.196078%);fill-opacity:1;" d="M 62.257812 118.945312 C 29.460938 118.945312 2.785156 92.265625 2.785156 59.472656 C 2.785156 26.675781 29.460938 0 62.257812 0 C 95.050781 0 121.726562 26.675781 121.726562 59.472656 C 121.726562 92.265625 95.046875 118.945312 62.257812 118.945312 Z M 62.257812 5.664062 C 32.585938 5.664062 8.449219 29.800781 8.449219 59.472656 C 8.449219 89.144531 32.585938 113.28125 62.257812 113.28125 C 91.925781 113.28125 116.0625 89.144531 116.0625 59.472656 C 116.0625 29.800781 91.925781 5.664062 62.257812 5.664062 Z M 62.257812 5.664062 "/>
</g>
</svg>
