<svg height="100pt" viewBox="0 0 512 512" width="100pt" xmlns="http://www.w3.org/2000/svg">
    <path d="m512 256c0 141.386719-114.613281 256-256 256s-256-114.613281-256-256 114.613281-256 256-256 256 114.613281 256 256zm0 0"
          fill="#a0d7fc"/>
    <path d="m340.867188 109.671875h-80.035157c-4.21875-.867187-7.390625-4.601563-7.390625-9.078125 0-4.6875 3.488282-8.554688 8.011719-9.167969h7.003906c6.453125 0 11.6875-5.234375 11.6875-11.6875 0-6.457031-5.234375-11.6875-11.6875-11.6875-4.324219 0-8.648437 0-12.972656 0-5.117187 0-9.265625-4.148437-9.265625-9.265625 0-4.34375 2.992188-7.976562 7.023438-8.980468h47.144531c6.453125 0 11.6875-5.234376 11.6875-11.6875 0-6.457032-5.234375-11.691407-11.6875-11.691407h-143.113281c-6.453126 0-11.6875 5.234375-11.6875 11.691407 0 6.453124 5.234374 11.6875 11.6875 11.6875h41.726562c4.03125 1.003906 7.023438 4.636718 7.023438 8.980468 0 5.117188-4.148438 9.265625-9.265626 9.265625h-71.414062c-6.453125 0-11.6875 5.230469-11.6875 11.6875 0 6.453125 5.234375 11.6875 11.6875 11.6875h79.894531c4.519531.613281 8.007813 4.480469 8.007813 9.167969 0 4.476562-3.171875 8.210938-7.390625 9.078125h-8.097657c-6.457031 0-11.691406 5.230469-11.691406 11.6875 0 6.453125 5.234375 11.6875 11.691406 11.6875h143.109376c6.457031 0 11.691406-5.234375 11.691406-11.6875 0-6.457031-5.234375-11.6875-11.691406-11.6875zm0 0"
          fill="#bde5ff"/>
    <path d="m45.640625 177.988281v223.953125c8.796875 12.652344 18.695313 24.460938 29.570313 35.304688 18.828124 18.777344 40.5625 34.652344 64.472656 46.867187 1.90625.972657 3.835937 1.917969 5.773437 2.84375.453125.21875.910157.441407 1.367188.65625.144531.066407.289062.140625.433593.207031h.019532c33 15.507813 69.839844 24.179688 108.722656 24.179688s75.722656-8.671875 108.722656-24.179688h.019532c.144531-.066406.289062-.140624.433593-.207031.460938-.214843.914063-.4375 1.371094-.65625 1.9375-.925781 3.867187-1.871093 5.773437-2.84375 23.90625-12.214843 45.640626-28.089843 64.46875-46.867187 10.878907-10.84375 20.773438-22.652344 29.570313-35.304688v-223.953125zm0 0"
          fill="#e7dbb9"/>
    <path d="m466.359375 178.71875v223.222656c-8.328125 11.984375-17.648437 23.214844-27.859375 33.582032v-256.804688zm0 0"
          fill="#d0c6a7"/>
    <path d="m466.359375 189.660156h-423.679687c-4.398438 0-7.960938-3.566406-7.960938-7.960937 0-4.398438 3.5625-7.960938 7.960938-7.960938h423.679687c4.394531 0 7.960937 3.5625 7.960937 7.960938 0 4.394531-3.566406 7.960937-7.960937 7.960937zm0 0"
          fill="#a89f87"/>
    <path d="m466.359375 245.453125h-423.679687c-4.398438 0-7.960938-3.566406-7.960938-7.960937 0-4.394532 3.5625-7.960938 7.960938-7.960938h423.679687c4.394531 0 7.960937 3.566406 7.960937 7.960938 0 4.394531-3.566406 7.960937-7.960937 7.960937zm0 0"
          fill="#a89f87"/>
    <path d="m436.789062 437.246094c-18.828124 18.777344-40.5625 34.652344-64.472656 46.867187-2.496094 1.273438-5.023437 2.515625-7.574218 3.707031-1.996094.941407-4 1.851563-6.019532 2.738282h-205.445312c-2.019532-.886719-4.023438-1.796875-6.019532-2.738282-2.550781-1.191406-5.078124-2.433593-7.574218-3.707031-23.910156-12.214843-45.644532-28.089843-64.472656-46.867187zm0 0"
          fill="#a89f87"/>
    <path d="m256.394531 388.894531c-26.859375 0-48.632812 21.777344-48.632812 48.636719v50.285156h97.265625v-50.285156c0-26.859375-21.773438-48.636719-48.632813-48.636719zm0 0"
          fill="#7a7463"/>
    <path d="m305.027344 437.53125v50.289062h-21.242188v-50.289062c0-23.21875-16.261718-42.621094-38.015625-47.460938 3.417969-.773437 6.980469-1.167968 10.628907-1.167968 26.851562 0 48.628906 21.761718 48.628906 48.628906zm0 0"
          fill="#676254"/>
    <path d="m80.804688 264.832031h43.519531v43.519531h-43.519531zm0 0" fill="#eae5d9"/>
    <path d="m113.019531 264.835938h11.304688v43.523437h-11.304688zm0 0" fill="#ded9cc"/>
    <g fill="#eae5d9">
        <path d="m142.179688 264.832031h43.519531v43.519531h-43.519531zm0 0"/>
        <path d="m326.300781 264.832031h43.519531v43.519531h-43.519531zm0 0"/>
        <path d="m387.675781 264.832031h43.519531v43.519531h-43.519531zm0 0"/>
        <path d="m80.804688 323.210938h43.519531v43.519531h-43.519531zm0 0"/>
    </g>
    <path d="m113.019531 323.210938h11.304688v43.519531h-11.304688zm0 0" fill="#ded9cc"/>
    <path d="m142.179688 323.210938h43.519531v43.519531h-43.519531zm0 0" fill="#eae5d9"/>
    <path d="m326.300781 323.210938h43.519531v43.519531h-43.519531zm0 0" fill="#eae5d9"/>
    <path d="m387.675781 323.210938h43.519531v43.519531h-43.519531zm0 0" fill="#eae5d9"/>
    <path d="m80.804688 383.46875h43.519531v43.519531h-43.519531zm0 0" fill="#eae5d9"/>
    <path d="m113.019531 383.46875h11.304688v43.523438h-11.304688zm0 0" fill="#ded9cc"/>
    <path d="m174.390625 264.835938h11.308594v43.523437h-11.308594zm0 0" fill="#ded9cc"/>
    <path d="m174.390625 323.210938h11.308594v43.519531h-11.308594zm0 0" fill="#ded9cc"/>
    <path d="m142.179688 383.46875h43.519531v43.519531h-43.519531zm0 0" fill="#eae5d9"/>
    <path d="m174.390625 383.46875h11.308594v43.523438h-11.308594zm0 0" fill="#ded9cc"/>
    <path d="m326.300781 383.46875h43.519531v43.519531h-43.519531zm0 0" fill="#eae5d9"/>
    <path d="m358.488281 264.835938h11.304688v43.523437h-11.304688zm0 0" fill="#ded9cc"/>
    <path d="m358.488281 323.210938h11.304688v43.519531h-11.304688zm0 0" fill="#ded9cc"/>
    <path d="m358.488281 383.46875h11.304688v43.523438h-11.304688zm0 0" fill="#ded9cc"/>
    <path d="m387.675781 383.46875h43.519531v43.519531h-43.519531zm0 0" fill="#eae5d9"/>
    <path d="m419.890625 264.835938h11.304687v43.523437h-11.304687zm0 0" fill="#ded9cc"/>
    <path d="m419.890625 323.210938h11.304687v43.519531h-11.304687zm0 0" fill="#ded9cc"/>
    <path d="m419.890625 383.46875h11.304687v43.523438h-11.304687zm0 0" fill="#ded9cc"/>
    <path d="m306.070312 309.703125c0 26.875-21.785156 48.664063-48.660156 48.664063s-48.664062-21.789063-48.664062-48.664063 21.789062-48.660156 48.664062-48.660156 48.660156 21.785156 48.660156 48.660156zm0 0"
          fill="#f6ede5"/>
    <path d="m306.074219 309.703125c0 26.875-21.789063 48.65625-48.664063 48.65625-2.402344 0-4.761718-.171875-7.066406-.503906 23.527344-3.425781 41.605469-23.679688 41.605469-48.152344s-18.078125-44.726563-41.605469-48.152344c2.304688-.332031 4.664062-.503906 7.066406-.503906 26.875 0 48.664063 21.78125 48.664063 48.65625zm0 0"
          fill="#d9d3c5"/>
    <path d="m270.261719 308.328125h-6.386719v-18.457031c0-4.328125-3.507812-7.839844-7.835938-7.839844-4.328124 0-7.835937 3.511719-7.835937 7.839844v26.292968c0 4.328126 3.507813 7.835938 7.835937 7.835938h14.222657c4.328125 0 7.835937-3.507812 7.835937-7.835938 0-4.328124-3.507812-7.835937-7.835937-7.835937zm0 0"
          fill="#dcd3cd"/>
    <path d="m157.023438 201.785156h44.632812v215.542969h-44.632812zm0 0" fill="#e6dbd5"/>
    <path d="m189.453125 201.785156h12.210937v215.539063h-12.210937zm0 0" fill="#d3cac3"/>
    <path d="m311.847656 201.785156h44.636719v215.542969h-44.636719zm0 0" fill="#e6dbd5"/>
    <path d="m344.570312 201.785156h12.210938v215.539063h-12.210938zm0 0" fill="#d3cac3"/>
    <path d="m320.160156 201.785156h15.675782v215.542969h-15.675782zm0 0" fill="#d3cac3"/>
    <path d="m364.710938 420.277344v67.535156h-65.839844v-68.003906c0-5.160156 4.191406-9.351563 9.351562-9.351563 0 0 47.773438.019531 48.085938.050781 4.722656.503907 8.402344 4.683594 8.402344 9.769532zm0 0"
          fill="#f6ede5"/>
    <path d="m364.710938 420.277344v67.535156h-15.882813v-67.535156c0-5.421875-4.1875-9.820313-9.363281-9.820313h15.882812c.324219 0 .648438.019531.960938.050781 4.722656.503907 8.402344 4.683594 8.402344 9.769532zm0 0"
          fill="#e6ddd6"/>
    <path d="m165.042969 201.785156h15.675781v215.542969h-15.675781zm0 0" fill="#d3cac3"/>
    <path d="m261.996094 79.25v27.367188l47.492187.007812c2.183594 0 3.398438-2.535156 2.023438-4.238281l-6.304688-7.816407c-.769531-.953124-.769531-2.316406 0-3.269531l6.304688-7.820312c1.375-1.703125.160156-4.234375-2.023438-4.234375zm0 0"
          fill="#d3374a"/>
    <path d="m311.515625 102.390625c1.367187 1.703125.160156 4.234375-2.027344 4.234375h-8.988281c2.183594 0 3.402344-2.53125 2.023438-4.234375l-6.296876-7.828125c-.777343-.945312-.777343-2.300781 0-3.261719l6.296876-7.816406c1.367187-1.691406.183593-4.199219-1.96875-4.242187h8.9375c2.183593 0 3.390624 2.542968 2.023437 4.242187l-6.308594 7.816406c-.765625.960938-.765625 2.316407 0 3.261719zm0 0"
          fill="#9c1830"/>
    <path d="m264.085938 148.277344h-10.769532v-70.148438c0-2.972656 2.410156-5.382812 5.382813-5.382812 2.976562 0 5.386719 2.410156 5.386719 5.382812zm0 0"
          fill="#e7dbb9"/>
    <path d="m264.085938 78.128906v70.152344h-5.378907v-70.152344c0-1.996094-1.089843-3.730468-2.699219-4.664062.796876-.457032 1.714844-.71875 2.699219-.71875 1.480469 0 2.828125.605468 3.800781 1.578125.972657.972656 1.578126 2.320312 1.578126 3.804687zm0 0"
          fill="#d0c6a7"/>
    <path d="m213.933594 420.277344v67.535156h-65.839844v-68.003906c0-5.160156 4.191406-9.351563 9.351562-9.351563h47.136719c.324219 0 .636719.019531.949219.050781 4.722656.503907 8.402344 4.683594 8.402344 9.769532zm0 0"
          fill="#f6ede5"/>
    <path d="m213.933594 420.277344v67.535156h-15.875v-67.535156c0-5.421875-4.1875-9.820313-9.359375-9.820313h15.882812c.324219 0 .636719.019531.949219.050781 4.722656.503907 8.402344 4.683594 8.402344 9.769532zm0 0"
          fill="#e6ddd6"/>
    <path d="m376.824219 208.480469h-237.785157c-3.363281 0-6.089843-2.726563-6.089843-6.089844v-53.664063c0-3.359374 2.726562-6.085937 6.089843-6.085937h237.785157c3.363281 0 6.089843 2.722656 6.089843 6.085937v53.664063c0 3.363281-2.726562 6.089844-6.089843 6.089844zm0 0"
          fill="#f6ede5"/>
    <path d="m382.914062 148.734375v53.664063c0 3.359374-2.726562 6.082031-6.085937 6.082031h-26.433594c3.359375 0 6.085938-2.722657 6.085938-6.082031v-53.664063c0-3.371094-2.726563-6.09375-6.085938-6.09375h26.433594c3.359375 0 6.085937 2.722656 6.085937 6.09375zm0 0"
          fill="#e7e2d5"/>
    <path d="m342.390625 172.308594h-188.429687c-4.328126 0-7.835938-3.511719-7.835938-7.839844s3.507812-7.835938 7.835938-7.835938h188.429687c4.328125 0 7.835937 3.507813 7.835937 7.835938s-3.507812 7.839844-7.835937 7.839844zm0 0"
          fill="#eae4d4"/>
    <path d="m342.390625 197.742188h-188.429687c-4.328126 0-7.835938-3.507813-7.835938-7.835938s3.507812-7.839844 7.835938-7.839844h188.429687c4.328125 0 7.835937 3.511719 7.835937 7.839844s-3.507812 7.835938-7.835937 7.835938zm0 0"
          fill="#eae4d4"/>
    <path d="m372.316406 484.113281c-34.898437 17.835938-74.425781 27.886719-116.316406 27.886719s-81.417969-10.050781-116.316406-27.886719zm0 0"
          fill="#f6ede5"/>
</svg>