<?xml version="1.0" encoding="UTF-8"?>
<svg xmlns="http://www.w3.org/2000/svg" xmlns:xlink="http://www.w3.org/1999/xlink" width="30px" height="30px" viewBox="0 0 30 30" version="1.1">
<g id="surface1">
<path style=" stroke:none;fill-rule:nonzero;fill:rgb(98.039216%,84.313725%,60.784314%);fill-opacity:1;" d="M 3.632812 19.117188 L 3.632812 10.882812 C 3.632812 8.464844 5.457031 6.46875 7.800781 6.210938 L 5.273438 6.210938 C 2.683594 6.210938 0.585938 8.308594 0.585938 10.898438 L 0.585938 19.101562 C 0.585938 21.691406 2.683594 23.789062 5.273438 23.789062 L 7.800781 23.789062 C 5.457031 23.53125 3.632812 21.535156 3.632812 19.117188 Z M 3.632812 19.117188 "/>
<path style=" stroke:none;fill-rule:nonzero;fill:rgb(85.098039%,85.098039%,88.627451%);fill-opacity:1;" d="M 27.070312 6.210938 L 7.800781 6.210938 C 5.457031 6.46875 3.632812 8.464844 3.632812 10.882812 L 3.632812 19.117188 C 3.632812 21.535156 5.457031 23.53125 7.800781 23.789062 L 27.070312 23.789062 C 28.363281 23.789062 29.414062 22.738281 29.414062 21.445312 L 29.414062 8.554688 C 29.414062 7.261719 28.363281 6.210938 27.070312 6.210938 Z M 27.070312 6.210938 "/>
<path style=" stroke:none;fill-rule:nonzero;fill:rgb(94.117647%,23.529412%,19.607843%);fill-opacity:1;" d="M 9.960938 19.101562 L 24.726562 19.101562 L 24.726562 23.789062 L 9.960938 23.789062 Z M 9.960938 19.101562 "/>
<path style=" stroke:none;fill-rule:nonzero;fill:rgb(97.647059%,58.431373%,0%);fill-opacity:1;" d="M 9.960938 6.210938 L 24.726562 6.210938 L 24.726562 19.101562 L 9.960938 19.101562 Z M 9.960938 6.210938 "/>
<path style=" stroke:none;fill-rule:nonzero;fill:rgb(0%,0%,0%);fill-opacity:1;" d="M 27.070312 5.625 L 5.273438 5.625 C 2.367188 5.625 0 7.992188 0 10.898438 L 0 19.101562 C 0 22.007812 2.367188 24.375 5.273438 24.375 L 27.070312 24.375 C 28.6875 24.375 30 23.0625 30 21.445312 L 30 8.554688 C 30 6.9375 28.6875 5.625 27.070312 5.625 Z M 1.171875 19.101562 L 1.171875 10.898438 C 1.171875 8.746094 2.839844 6.972656 4.953125 6.808594 C 3.78125 7.78125 3.046875 9.253906 3.046875 10.882812 L 3.046875 19.117188 C 3.046875 20.746094 3.78125 22.21875 4.953125 23.191406 C 2.839844 23.027344 1.171875 21.253906 1.171875 19.101562 Z M 9.375 23.203125 L 7.835938 23.203125 C 5.769531 22.960938 4.21875 21.207031 4.21875 19.117188 L 4.21875 10.882812 C 4.21875 8.792969 5.769531 7.039062 7.835938 6.796875 L 9.375 6.796875 Z M 24.140625 23.203125 L 10.546875 23.203125 L 10.546875 19.6875 L 24.140625 19.6875 Z M 24.140625 18.515625 L 10.546875 18.515625 L 10.546875 6.796875 L 24.140625 6.796875 Z M 28.828125 21.445312 C 28.828125 22.414062 28.039062 23.203125 27.070312 23.203125 L 25.3125 23.203125 L 25.3125 6.796875 L 27.070312 6.796875 C 28.039062 6.796875 28.828125 7.585938 28.828125 8.554688 Z M 28.828125 21.445312 "/>
<path style=" stroke:none;fill-rule:nonzero;fill:rgb(0%,0%,0%);fill-opacity:1;" d="M 14.414062 10.019531 C 14.738281 10.019531 15 9.757812 15 9.433594 C 15 9.109375 14.738281 8.847656 14.414062 8.847656 C 14.089844 8.847656 13.828125 9.109375 13.828125 9.433594 C 13.828125 9.757812 14.089844 10.019531 14.414062 10.019531 Z M 14.414062 10.019531 "/>
<path style=" stroke:none;fill-rule:nonzero;fill:rgb(0%,0%,0%);fill-opacity:1;" d="M 16.757812 10.019531 L 20.273438 10.019531 C 20.597656 10.019531 20.859375 9.757812 20.859375 9.433594 C 20.859375 9.109375 20.597656 8.847656 20.273438 8.847656 L 16.757812 8.847656 C 16.433594 8.847656 16.171875 9.109375 16.171875 9.433594 C 16.171875 9.757812 16.433594 10.019531 16.757812 10.019531 Z M 16.757812 10.019531 "/>
<path style=" stroke:none;fill-rule:nonzero;fill:rgb(0%,0%,0%);fill-opacity:1;" d="M 14.414062 12.363281 L 20.273438 12.363281 C 20.597656 12.363281 20.859375 12.101562 20.859375 11.777344 C 20.859375 11.453125 20.597656 11.191406 20.273438 11.191406 L 14.414062 11.191406 C 14.089844 11.191406 13.828125 11.453125 13.828125 11.777344 C 13.828125 12.101562 14.089844 12.363281 14.414062 12.363281 Z M 14.414062 12.363281 "/>
<path style=" stroke:none;fill-rule:nonzero;fill:rgb(0%,0%,0%);fill-opacity:1;" d="M 14.414062 14.707031 L 16.171875 14.707031 C 16.496094 14.707031 16.757812 14.445312 16.757812 14.121094 C 16.757812 13.796875 16.496094 13.535156 16.171875 13.535156 L 14.414062 13.535156 C 14.089844 13.535156 13.828125 13.796875 13.828125 14.121094 C 13.828125 14.445312 14.089844 14.707031 14.414062 14.707031 Z M 14.414062 14.707031 "/>
<path style=" stroke:none;fill-rule:nonzero;fill:rgb(0%,0%,0%);fill-opacity:1;" d="M 20.273438 13.535156 L 18.515625 13.535156 C 18.191406 13.535156 17.929688 13.796875 17.929688 14.121094 C 17.929688 14.445312 18.191406 14.707031 18.515625 14.707031 L 20.273438 14.707031 C 20.597656 14.707031 20.859375 14.445312 20.859375 14.121094 C 20.859375 13.796875 20.597656 13.535156 20.273438 13.535156 Z M 20.273438 13.535156 "/>
</g>
</svg>
