<?xml version="1.0" encoding="UTF-8"?>
<svg xmlns="http://www.w3.org/2000/svg" xmlns:xlink="http://www.w3.org/1999/xlink" width="100px" height="90px" viewBox="0 0 100 100" version="1.1">
<g id="surface1">
<path style=" stroke:none;fill-rule:nonzero;fill:rgb(61.176471%,90.588235%,96.862745%);fill-opacity:1;" d="M 23.195312 77.550781 C 26.890625 76.929688 30.632812 76.59375 34.378906 76.550781 L 34.378906 65.613281 L 21.882812 65.613281 C 21.96875 69.621094 22.410156 73.617188 23.195312 77.550781 Z M 23.195312 77.550781 "/>
<path style=" stroke:none;fill-rule:nonzero;fill:rgb(61.176471%,90.588235%,96.862745%);fill-opacity:1;" d="M 21.882812 62.488281 L 34.378906 62.488281 L 34.378906 51.554688 C 30.636719 51.492188 26.902344 51.144531 23.210938 50.507812 C 22.417969 54.453125 21.972656 58.464844 21.882812 62.488281 Z M 21.882812 62.488281 "/>
<path style=" stroke:none;fill-rule:nonzero;fill:rgb(61.176471%,90.588235%,96.862745%);fill-opacity:1;" d="M 37.503906 79.675781 L 37.503906 96.703125 C 41.925781 95.5 45.769531 89.296875 48.003906 80.671875 C 44.535156 80.078125 41.023438 79.742188 37.503906 79.675781 Z M 37.503906 79.675781 "/>
<path style=" stroke:none;fill-rule:nonzero;fill:rgb(96.862745%,52.54902%,15.686275%);fill-opacity:1;" d="M 48.441406 14.671875 L 36.441406 18.667969 C 36.121094 18.777344 35.777344 18.777344 35.457031 18.667969 L 23.445312 14.671875 L 23.445312 30.371094 C 31.507812 27.378906 40.375 27.378906 48.441406 30.371094 Z M 48.441406 14.671875 "/>
<path style=" stroke:none;fill-rule:nonzero;fill:rgb(61.176471%,90.588235%,96.862745%);fill-opacity:1;" d="M 23.914062 47.414062 C 27.371094 48.011719 30.871094 48.34375 34.378906 48.414062 L 34.378906 31.480469 C 29.988281 32.667969 26.132812 38.820312 23.914062 47.414062 Z M 23.914062 47.414062 "/>
<path style=" stroke:none;fill-rule:nonzero;fill:rgb(61.176471%,90.588235%,96.862745%);fill-opacity:1;" d="M 34.378906 96.625 L 34.378906 79.675781 C 30.859375 79.742188 27.351562 80.078125 23.882812 80.675781 C 26.117188 89.234375 29.957031 95.4375 34.378906 96.625 Z M 34.378906 96.625 "/>
<path style=" stroke:none;fill-rule:nonzero;fill:rgb(61.176471%,90.588235%,96.862745%);fill-opacity:1;" d="M 10.585938 84.84375 C 15.011719 90.222656 21.027344 94.050781 27.773438 95.78125 C 24.335938 91.546875 21.945312 86.566406 20.789062 81.238281 C 17.246094 81.996094 13.820312 83.210938 10.585938 84.84375 Z M 10.585938 84.84375 "/>
<path style=" stroke:none;fill-rule:nonzero;fill:rgb(61.176471%,90.588235%,96.862745%);fill-opacity:1;" d="M 51.796875 78.113281 C 55.757812 78.980469 59.582031 80.386719 63.15625 82.296875 C 66.488281 77.347656 68.394531 71.574219 68.671875 65.613281 L 53.125 65.613281 C 53.050781 69.8125 52.605469 73.992188 51.796875 78.113281 Z M 51.796875 78.113281 "/>
<path style=" stroke:none;fill-rule:nonzero;fill:rgb(61.176471%,90.588235%,96.862745%);fill-opacity:1;" d="M 51.78125 49.851562 C 52.605469 54.015625 53.054688 58.246094 53.125 62.488281 L 68.75 62.488281 C 68.480469 56.480469 66.554688 50.664062 63.1875 45.679688 C 59.59375 47.589844 55.757812 48.992188 51.78125 49.851562 Z M 51.78125 49.851562 "/>
<path style=" stroke:none;fill-rule:nonzero;fill:rgb(61.176471%,90.588235%,96.862745%);fill-opacity:1;" d="M 44.128906 95.78125 C 50.871094 94.050781 56.890625 90.222656 61.3125 84.84375 C 58.074219 83.207031 54.640625 81.996094 51.09375 81.234375 C 49.945312 86.5625 47.558594 91.546875 44.128906 95.78125 Z M 44.128906 95.78125 "/>
<path style=" stroke:none;fill-rule:nonzero;fill:rgb(61.176471%,90.588235%,96.862745%);fill-opacity:1;" d="M 89.058594 67.175781 C 84.742188 67.175781 81.246094 70.671875 81.246094 74.988281 L 81.246094 84.359375 C 81.246094 88.675781 84.742188 92.171875 89.058594 92.171875 C 93.371094 92.171875 96.867188 88.675781 96.867188 84.359375 L 96.867188 74.988281 C 96.867188 70.671875 93.371094 67.175781 89.058594 67.175781 Z M 90.621094 76.550781 L 87.496094 76.550781 L 87.496094 71.863281 L 90.621094 71.863281 Z M 90.621094 76.550781 "/>
<path style=" stroke:none;fill-rule:nonzero;fill:rgb(61.176471%,90.588235%,96.862745%);fill-opacity:1;" d="M 48.675781 50.460938 C 44.984375 51.113281 41.25 51.476562 37.503906 51.554688 L 37.503906 62.488281 L 50.003906 62.488281 C 49.914062 58.449219 49.46875 54.421875 48.675781 50.460938 Z M 48.675781 50.460938 "/>
<path style=" stroke:none;fill-rule:nonzero;fill:rgb(61.176471%,90.588235%,96.862745%);fill-opacity:1;" d="M 60.9375 23.433594 C 60.9375 24.296875 60.238281 24.996094 59.375 24.996094 C 58.511719 24.996094 57.8125 24.296875 57.8125 23.433594 C 57.8125 22.570312 58.511719 21.871094 59.375 21.871094 C 60.238281 21.871094 60.9375 22.570312 60.9375 23.433594 Z M 60.9375 23.433594 "/>
<path style=" stroke:none;fill-rule:nonzero;fill:rgb(61.176471%,90.588235%,96.862745%);fill-opacity:1;" d="M 18.757812 65.613281 L 3.136719 65.613281 C 3.402344 71.589844 5.3125 77.378906 8.648438 82.34375 C 12.226562 80.433594 16.046875 79.023438 20.007812 78.160156 C 19.222656 74.023438 18.804688 69.824219 18.757812 65.613281 Z M 18.757812 65.613281 "/>
<path style=" stroke:none;fill-rule:nonzero;fill:rgb(61.176471%,90.588235%,96.862745%);fill-opacity:1;" d="M 37.503906 31.480469 L 37.503906 48.429688 C 41.011719 48.359375 44.511719 48.027344 47.972656 47.429688 C 45.753906 38.820312 41.894531 32.667969 37.503906 31.480469 Z M 37.503906 31.480469 "/>
<path style=" stroke:none;fill-rule:nonzero;fill:rgb(61.176471%,90.588235%,96.862745%);fill-opacity:1;" d="M 37.503906 76.550781 C 41.253906 76.609375 44.992188 76.960938 48.691406 77.597656 C 49.476562 73.648438 49.917969 69.636719 50 65.613281 L 37.503906 65.613281 Z M 37.503906 76.550781 "/>
<path style=" stroke:none;fill-rule:nonzero;fill:rgb(61.176471%,90.588235%,96.862745%);fill-opacity:1;" d="M 20.101562 49.851562 C 16.148438 48.992188 12.332031 47.59375 8.757812 45.695312 C 5.398438 50.675781 3.480469 56.488281 3.214844 62.488281 L 18.835938 62.488281 C 18.882812 58.246094 19.304688 54.019531 20.101562 49.851562 Z M 20.101562 49.851562 "/>
<path style=" stroke:none;fill-rule:nonzero;fill:rgb(61.176471%,90.588235%,96.862745%);fill-opacity:1;" d="M 27.757812 32.324219 C 21.011719 34.054688 14.996094 37.882812 10.570312 43.257812 C 13.789062 44.890625 17.203125 46.101562 20.726562 46.867188 C 21.890625 41.535156 24.300781 36.550781 27.757812 32.324219 Z M 27.757812 32.324219 "/>
<path style=" stroke:none;fill-rule:nonzero;fill:rgb(96.862745%,52.54902%,15.686275%);fill-opacity:1;" d="M 54.4375 9.375 L 35.941406 3.203125 L 17.445312 9.375 L 35.941406 15.546875 Z M 54.4375 9.375 "/>
<path style=" stroke:none;fill-rule:nonzero;fill:rgb(61.176471%,90.588235%,96.862745%);fill-opacity:1;" d="M 51.078125 46.789062 C 54.605469 46.023438 58.015625 44.8125 61.234375 43.179688 C 56.8125 37.804688 50.792969 33.972656 44.050781 32.246094 C 47.503906 36.472656 49.914062 41.457031 51.078125 46.789062 Z M 51.078125 46.789062 "/>
<path style=" stroke:none;fill-rule:nonzero;fill:rgb(25.490196%,29.019608%,32.156863%);fill-opacity:1;" d="M 90.621094 64.175781 L 90.621094 28.902344 C 90.621094 25.019531 87.472656 21.871094 83.589844 21.871094 C 79.707031 21.871094 76.558594 25.019531 76.558594 28.902344 L 76.558594 45.304688 C 76.558594 47.894531 74.460938 49.992188 71.871094 49.992188 L 69 49.992188 C 65.578125 41.996094 59.386719 35.5 51.566406 31.699219 L 51.566406 13.625 L 57.8125 11.546875 L 57.8125 19.042969 C 55.375 19.90625 54.09375 22.585938 54.957031 25.023438 C 55.820312 27.464844 58.496094 28.746094 60.9375 27.882812 C 63.378906 27.019531 64.65625 24.339844 63.792969 21.902344 C 63.324219 20.566406 62.273438 19.515625 60.9375 19.042969 L 60.9375 9.375 C 60.941406 8.703125 60.511719 8.105469 59.875 7.890625 L 36.441406 0.078125 C 36.121094 -0.0273438 35.777344 -0.0273438 35.457031 0.078125 L 12.023438 7.890625 C 11.203125 8.160156 10.757812 9.042969 11.027344 9.863281 C 11.183594 10.332031 11.554688 10.703125 12.023438 10.859375 L 20.335938 13.625 L 20.335938 31.699219 C 2.460938 40.320312 -5.039062 61.796875 3.585938 79.671875 C 12.207031 97.546875 33.683594 105.046875 51.558594 96.421875 C 67.6875 88.644531 75.625 70.171875 70.167969 53.117188 L 71.871094 53.117188 C 76.1875 53.117188 79.683594 49.621094 79.683594 45.304688 L 79.683594 28.902344 C 79.683594 26.746094 81.433594 24.996094 83.589844 24.996094 C 85.746094 24.996094 87.496094 26.746094 87.496094 28.902344 L 87.496094 64.175781 C 82.121094 64.953125 78.128906 69.554688 78.121094 74.988281 L 78.121094 84.359375 C 78.121094 90.402344 83.015625 95.296875 89.058594 95.296875 C 95.097656 95.296875 99.992188 90.402344 99.992188 84.359375 L 99.992188 74.988281 C 99.984375 69.554688 95.996094 64.953125 90.621094 64.175781 Z M 37.503906 51.554688 C 41.25 51.492188 44.984375 51.144531 48.675781 50.507812 C 49.46875 54.453125 49.910156 58.464844 50.003906 62.488281 L 37.503906 62.488281 Z M 37.503906 48.429688 L 37.503906 31.480469 C 41.894531 32.683594 45.753906 38.835938 47.972656 47.414062 C 44.511719 48.015625 41.015625 48.355469 37.503906 48.429688 Z M 34.378906 31.496094 L 34.378906 48.429688 C 30.871094 48.359375 27.371094 48.027344 23.914062 47.429688 C 26.132812 38.835938 29.988281 32.667969 34.378906 31.480469 C 34.378906 31.480469 34.378906 31.496094 34.378906 31.496094 Z M 34.378906 51.554688 L 34.378906 62.488281 L 21.882812 62.488281 C 21.960938 58.449219 22.394531 54.425781 23.179688 50.460938 C 26.878906 51.113281 30.625 51.480469 34.378906 51.554688 Z M 18.757812 62.488281 L 3.136719 62.488281 C 3.402344 56.480469 5.328125 50.664062 8.695312 45.679688 C 12.269531 47.578125 16.085938 48.976562 20.039062 49.835938 C 19.238281 54.007812 18.808594 58.242188 18.757812 62.488281 Z M 18.757812 65.613281 C 18.828125 69.808594 19.269531 73.992188 20.070312 78.113281 C 16.109375 78.976562 12.289062 80.386719 8.710938 82.296875 C 5.386719 77.34375 3.484375 71.574219 3.214844 65.613281 L 18.835938 65.613281 Z M 21.882812 65.613281 L 34.378906 65.613281 L 34.378906 76.550781 C 30.628906 76.609375 26.890625 76.960938 23.195312 77.597656 C 22.40625 73.648438 21.96875 69.636719 21.882812 65.613281 Z M 34.378906 79.675781 L 34.378906 96.703125 C 29.957031 95.5 26.117188 89.296875 23.882812 80.671875 C 27.351562 80.078125 30.859375 79.742188 34.378906 79.675781 Z M 37.503906 96.703125 L 37.503906 79.675781 C 41.023438 79.742188 44.535156 80.078125 48.003906 80.675781 C 45.769531 89.234375 41.925781 95.4375 37.503906 96.625 Z M 37.503906 76.550781 L 37.503906 65.613281 L 50.003906 65.613281 C 49.929688 69.621094 49.503906 73.613281 48.738281 77.550781 C 45.023438 76.925781 41.269531 76.59375 37.503906 76.550781 Z M 53.125 65.613281 L 68.75 65.613281 C 68.480469 71.589844 66.574219 77.378906 63.234375 82.34375 C 59.660156 80.433594 55.835938 79.023438 51.875 78.160156 C 52.660156 74.023438 53.078125 69.824219 53.125 65.613281 Z M 53.125 62.488281 C 53.058594 58.246094 52.613281 54.015625 51.796875 49.851562 C 55.75 48.992188 59.566406 47.59375 63.140625 45.695312 C 66.496094 50.675781 68.410156 56.488281 68.671875 62.488281 Z M 61.25 43.179688 C 58.03125 44.8125 54.621094 46.023438 51.09375 46.789062 C 49.941406 41.492188 47.558594 36.535156 44.144531 32.324219 C 50.84375 34.050781 56.824219 37.851562 61.234375 43.179688 Z M 59.375 24.996094 C 58.511719 24.996094 57.8125 24.296875 57.8125 23.433594 C 57.8125 22.570312 58.511719 21.871094 59.375 21.871094 C 60.238281 21.871094 60.9375 22.570312 60.9375 23.433594 C 60.9375 24.296875 60.238281 24.996094 59.375 24.996094 Z M 35.941406 3.203125 L 54.4375 9.375 L 35.941406 15.546875 L 17.445312 9.375 Z M 23.445312 14.65625 L 35.441406 18.652344 C 35.761719 18.761719 36.105469 18.761719 36.425781 18.652344 L 48.421875 14.65625 L 48.421875 30.355469 C 40.359375 27.363281 31.492188 27.363281 23.429688 30.355469 L 23.429688 14.671875 Z M 27.757812 32.308594 C 24.339844 36.519531 21.960938 41.476562 20.804688 46.773438 C 17.28125 46.007812 13.867188 44.796875 10.648438 43.164062 C 15.066406 37.835938 21.054688 34.042969 27.757812 32.324219 C 27.757812 32.324219 27.757812 32.308594 27.757812 32.308594 Z M 10.570312 84.84375 C 13.808594 83.207031 17.242188 81.996094 20.789062 81.234375 C 21.941406 86.570312 24.335938 91.558594 27.773438 95.796875 C 21.027344 94.0625 15.007812 90.226562 10.585938 84.84375 Z M 44.097656 95.78125 C 47.539062 91.546875 49.933594 86.566406 51.09375 81.234375 C 54.632812 82.003906 58.054688 83.222656 61.28125 84.859375 C 56.863281 90.226562 50.859375 94.050781 44.128906 95.78125 Z M 96.867188 84.359375 C 96.867188 88.675781 93.371094 92.171875 89.058594 92.171875 C 84.742188 92.171875 81.246094 88.675781 81.246094 84.359375 L 81.246094 74.988281 C 81.246094 70.671875 84.742188 67.175781 89.058594 67.175781 C 93.371094 67.175781 96.867188 70.671875 96.867188 74.988281 Z M 96.867188 84.359375 "/>
<path style=" stroke:none;fill-rule:nonzero;fill:rgb(25.490196%,29.019608%,32.156863%);fill-opacity:1;" d="M 87.496094 71.863281 L 90.621094 71.863281 L 90.621094 76.550781 L 87.496094 76.550781 Z M 87.496094 71.863281 "/>
<path style=" stroke:none;fill-rule:nonzero;fill:rgb(25.490196%,29.019608%,32.156863%);fill-opacity:1;" d="M 60.9375 93.734375 L 64.0625 93.734375 L 64.0625 96.859375 L 60.9375 96.859375 Z M 60.9375 93.734375 "/>
<path style=" stroke:none;fill-rule:nonzero;fill:rgb(25.490196%,29.019608%,32.156863%);fill-opacity:1;" d="M 67.1875 93.734375 L 70.308594 93.734375 L 70.308594 96.859375 L 67.1875 96.859375 Z M 67.1875 93.734375 "/>
<path style=" stroke:none;fill-rule:nonzero;fill:rgb(25.490196%,29.019608%,32.156863%);fill-opacity:1;" d="M 73.433594 93.734375 L 76.558594 93.734375 L 76.558594 96.859375 L 73.433594 96.859375 Z M 73.433594 93.734375 "/>
</g>
</svg>
