<?xml version="1.0" encoding="UTF-8"?>
<svg xmlns="http://www.w3.org/2000/svg" xmlns:xlink="http://www.w3.org/1999/xlink" width="35px" height="35px" viewBox="0 0 35 35" version="1.1">
<g id="surface1">
<path style=" stroke:none;fill-rule:nonzero;fill:rgb(36.078431%,69.019608%,100%);fill-opacity:1;" d="M 10 17.839844 L 12.5 17.839844 L 12.5 22.839844 L 10 22.839844 Z M 10 17.839844 "/>
<path style=" stroke:none;fill-rule:nonzero;fill:rgb(36.078431%,69.019608%,100%);fill-opacity:1;" d="M 3.75 17.839844 L 6.25 17.839844 L 6.25 22.839844 L 3.75 22.839844 Z M 3.75 17.839844 "/>
<path style=" stroke:none;fill-rule:nonzero;fill:rgb(81.568627%,90.980392%,100%);fill-opacity:1;" d="M 28.125 8.464844 C 25.023438 8.464844 22.5 10.988281 22.5 14.089844 L 22.5 14.714844 L 1.25 14.714844 L 1.25 16.589844 L 22.5 16.589844 L 22.5 20.964844 C 22.5 24.066406 25.023438 26.589844 28.125 26.589844 C 31.226562 26.589844 33.75 24.066406 33.75 20.964844 L 33.75 14.089844 C 33.75 10.988281 31.226562 8.464844 28.125 8.464844 Z M 32.5 20.335938 C 32.5 22.75 30.539062 24.714844 28.125 24.714844 C 25.710938 24.714844 23.75 22.75 23.75 20.335938 L 23.75 14.71875 C 23.75 12.304688 25.710938 10.339844 28.125 10.339844 C 30.539062 10.339844 32.5 12.304688 32.5 14.71875 Z M 32.5 20.335938 "/>
<path style=" stroke:none;fill-rule:nonzero;fill:rgb(10.980392%,44.313725%,85.490196%);fill-opacity:1;" d="M 28.125 7.214844 C 24.542969 7.214844 21.59375 9.964844 21.277344 13.464844 L 0 13.464844 L 0 17.839844 L 2.5 17.839844 L 2.5 24.089844 L 7.5 24.089844 L 7.5 17.839844 L 8.75 17.839844 L 8.75 24.089844 L 13.75 24.089844 L 13.75 17.839844 L 21.25 17.839844 L 21.25 20.964844 C 21.25 24.757812 24.335938 27.839844 28.125 27.839844 C 31.914062 27.839844 35 24.757812 35 20.964844 L 35 14.089844 C 35 10.300781 31.914062 7.214844 28.125 7.214844 Z M 6.25 22.839844 L 3.75 22.839844 L 3.75 17.839844 L 6.25 17.839844 Z M 12.5 22.839844 L 10 22.839844 L 10 17.839844 L 12.5 17.839844 Z M 33.75 20.964844 C 33.75 24.066406 31.226562 26.589844 28.125 26.589844 C 25.023438 26.589844 22.5 24.066406 22.5 20.964844 L 22.5 16.589844 L 1.25 16.589844 L 1.25 14.714844 L 22.5 14.714844 L 22.5 14.089844 C 22.5 10.988281 25.023438 8.464844 28.125 8.464844 C 31.226562 8.464844 33.75 10.988281 33.75 14.089844 Z M 33.75 20.964844 "/>
<path style=" stroke:none;fill-rule:nonzero;fill:rgb(10.980392%,44.313725%,85.490196%);fill-opacity:1;" d="M 28.125 10.339844 C 25.710938 10.339844 23.75 12.304688 23.75 14.71875 L 23.75 20.335938 C 23.75 22.75 25.710938 24.714844 28.125 24.714844 C 30.539062 24.714844 32.5 22.75 32.5 20.335938 L 32.5 14.71875 C 32.5 12.304688 30.539062 10.339844 28.125 10.339844 Z M 31.25 20.335938 C 31.25 22.0625 29.847656 23.464844 28.125 23.464844 C 26.402344 23.464844 25 22.0625 25 20.335938 L 25 14.71875 C 25 12.992188 26.402344 11.589844 28.125 11.589844 C 29.847656 11.589844 31.25 12.992188 31.25 14.71875 Z M 31.25 20.335938 "/>
<path style=" stroke:none;fill-rule:nonzero;fill:rgb(100%,36.470588%,36.470588%);fill-opacity:1;" d="M 4.414062 7.8125 C 4.253906 7.8125 4.09375 7.75 3.972656 7.628906 C 3.726562 7.386719 3.726562 6.988281 3.972656 6.746094 L 6.183594 4.535156 C 6.425781 4.292969 6.820312 4.292969 7.066406 4.535156 C 7.308594 4.78125 7.308594 5.175781 7.066406 5.417969 L 4.855469 7.628906 C 4.734375 7.75 4.574219 7.8125 4.414062 7.8125 Z M 4.414062 7.8125 "/>
<path style=" stroke:none;fill-rule:nonzero;fill:rgb(100%,36.470588%,36.470588%);fill-opacity:1;" d="M 6.625 7.8125 C 6.464844 7.8125 6.304688 7.75 6.183594 7.628906 L 3.972656 5.417969 C 3.726562 5.175781 3.726562 4.78125 3.972656 4.535156 C 4.214844 4.292969 4.613281 4.292969 4.855469 4.535156 L 7.066406 6.746094 C 7.308594 6.988281 7.308594 7.386719 7.066406 7.628906 C 6.945312 7.75 6.785156 7.8125 6.625 7.8125 Z M 6.625 7.8125 "/>
<path style=" stroke:none;fill-rule:nonzero;fill:rgb(0%,83.137255%,4.313725%);fill-opacity:1;" d="M 19.726562 33.4375 C 18.519531 33.4375 17.539062 32.457031 17.539062 31.25 C 17.539062 30.042969 18.519531 29.0625 19.726562 29.0625 C 20.933594 29.0625 21.914062 30.042969 21.914062 31.25 C 21.914062 32.457031 20.933594 33.4375 19.726562 33.4375 Z M 19.726562 30.3125 C 19.210938 30.3125 18.789062 30.734375 18.789062 31.25 C 18.789062 31.765625 19.210938 32.1875 19.726562 32.1875 C 20.242188 32.1875 20.664062 31.765625 20.664062 31.25 C 20.664062 30.734375 20.242188 30.3125 19.726562 30.3125 Z M 19.726562 30.3125 "/>
<path style=" stroke:none;fill-rule:nonzero;fill:rgb(100%,77.254902%,1.568627%);fill-opacity:1;" d="M 19.933594 6.347656 C 19.773438 6.347656 19.613281 6.285156 19.492188 6.164062 L 17.722656 4.398438 C 17.605469 4.28125 17.539062 4.121094 17.539062 3.957031 C 17.539062 3.789062 17.605469 3.628906 17.722656 3.511719 L 19.492188 1.746094 C 19.734375 1.5 20.128906 1.5 20.375 1.746094 L 22.140625 3.511719 C 22.386719 3.757812 22.386719 4.152344 22.140625 4.398438 L 20.375 6.164062 C 20.253906 6.285156 20.09375 6.347656 19.933594 6.347656 Z M 19.046875 3.957031 L 19.933594 4.839844 L 20.816406 3.957031 L 19.933594 3.070312 Z M 19.046875 3.957031 "/>
</g>
</svg>
