<?xml version="1.0" encoding="UTF-8"?>
<svg xmlns="http://www.w3.org/2000/svg" xmlns:xlink="http://www.w3.org/1999/xlink" width="25px" height="25px" viewBox="0 0 35 35" version="1.1">
<g id="surface1">
<path style=" stroke:none;fill-rule:nonzero;fill:rgb(0%,46.666667%,71.764706%);fill-opacity:1;" d="M 31.832031 0 L 3.167969 0 C 1.417969 0 0 1.417969 0 3.167969 L 0 31.832031 C 0 33.582031 1.417969 35 3.167969 35 L 31.832031 35 C 33.582031 35 35 33.582031 35 31.832031 L 35 3.167969 C 35 1.417969 33.582031 0 31.832031 0 Z M 10.832031 30.222656 C 10.832031 30.730469 10.417969 31.144531 9.910156 31.144531 L 5.988281 31.144531 C 5.476562 31.144531 5.066406 30.730469 5.066406 30.222656 L 5.066406 13.78125 C 5.066406 13.273438 5.476562 12.859375 5.988281 12.859375 L 9.910156 12.859375 C 10.417969 12.859375 10.832031 13.273438 10.832031 13.78125 Z M 7.949219 11.308594 C 5.890625 11.308594 4.222656 9.640625 4.222656 7.582031 C 4.222656 5.527344 5.890625 3.855469 7.949219 3.855469 C 10.007812 3.855469 11.675781 5.527344 11.675781 7.582031 C 11.675781 9.640625 10.007812 11.308594 7.949219 11.308594 Z M 31.328125 30.296875 C 31.328125 30.761719 30.949219 31.144531 30.480469 31.144531 L 26.269531 31.144531 C 25.804688 31.144531 25.425781 30.761719 25.425781 30.296875 L 25.425781 22.582031 C 25.425781 21.433594 25.761719 17.542969 22.417969 17.542969 C 19.824219 17.542969 19.296875 20.207031 19.191406 21.402344 L 19.191406 30.296875 C 19.191406 30.761719 18.8125 31.144531 18.34375 31.144531 L 14.273438 31.144531 C 13.804688 31.144531 13.425781 30.761719 13.425781 30.296875 L 13.425781 13.707031 C 13.425781 13.238281 13.804688 12.859375 14.273438 12.859375 L 18.34375 12.859375 C 18.8125 12.859375 19.191406 13.238281 19.191406 13.707031 L 19.191406 15.140625 C 20.152344 13.695312 21.582031 12.582031 24.625 12.582031 C 31.367188 12.582031 31.328125 18.878906 31.328125 22.339844 Z M 31.328125 30.296875 "/>
</g>
</svg>
