<?xml version="1.0" encoding="UTF-8"?>
<svg xmlns="http://www.w3.org/2000/svg" xmlns:xlink="http://www.w3.org/1999/xlink" width="35px" height="35px" viewBox="0 0 35 35" version="1.1">
<g id="surface1">
<path style=" stroke:none;fill-rule:nonzero;fill:rgb(81.568627%,90.980392%,100%);fill-opacity:1;" d="M 10.828125 28.816406 C 10.539062 28.753906 10.332031 28.496094 10.332031 28.195312 L 10.332031 26.511719 C 10.332031 26.230469 10.511719 25.984375 10.78125 25.902344 C 12.40625 25.402344 13.648438 24.066406 14.03125 22.410156 C 14.0625 22.261719 14.148438 22.132812 14.273438 22.042969 C 14.601562 21.796875 14.789062 21.425781 14.789062 21.015625 C 14.789062 20.542969 14.527344 20.109375 14.105469 19.886719 C 13.972656 19.816406 13.867188 19.703125 13.8125 19.5625 C 13.082031 17.738281 11.339844 16.558594 9.375 16.558594 C 7.410156 16.558594 5.667969 17.738281 4.9375 19.5625 C 4.882812 19.703125 4.777344 19.816406 4.644531 19.886719 C 4.222656 20.109375 3.960938 20.542969 3.960938 21.015625 C 3.960938 21.425781 4.148438 21.796875 4.476562 22.042969 C 4.601562 22.132812 4.6875 22.261719 4.71875 22.410156 C 5.101562 24.066406 6.34375 25.402344 7.96875 25.902344 C 8.238281 25.984375 8.417969 26.230469 8.417969 26.511719 L 8.417969 28.195312 C 8.417969 28.496094 8.210938 28.753906 7.921875 28.816406 C 5.660156 29.320312 3.828125 30.96875 3.066406 33.117188 L 15.683594 33.117188 C 14.921875 30.96875 13.089844 29.320312 10.828125 28.816406 Z M 10.828125 28.816406 "/>
<path style=" stroke:none;fill-rule:nonzero;fill:rgb(10.980392%,44.313725%,85.490196%);fill-opacity:1;" d="M 20.519531 0.0664062 L 20.519531 0 L 19.246094 0 C 11.871094 0 5.871094 6 5.871094 13.375 L 11.128906 13.375 C 11.125 13.5 11.117188 13.621094 11.117188 13.75 C 11.117188 14.101562 11.402344 14.386719 11.753906 14.386719 C 12.105469 14.386719 12.390625 14.101562 12.390625 13.75 C 12.390625 13.621094 12.398438 13.5 12.402344 13.375 L 19.246094 13.375 L 19.246094 25.476562 C 18.894531 25.476562 18.609375 25.761719 18.609375 26.113281 C 18.609375 26.464844 18.894531 26.75 19.246094 26.75 C 26.621094 26.75 32.621094 20.75 32.621094 13.375 C 32.621094 6.429688 27.300781 0.707031 20.519531 0.0664062 Z M 31.277344 12.101562 L 27.304688 12.101562 C 26.921875 7.328125 24.921875 3.359375 22.207031 1.65625 C 27.050781 2.882812 30.746094 7.019531 31.277344 12.101562 Z M 26.027344 12.101562 L 20.519531 12.101562 L 20.519531 2.234375 C 23.382812 3.160156 25.613281 7.132812 26.027344 12.101562 Z M 7.214844 12.101562 C 7.75 7.019531 11.441406 2.882812 16.285156 1.65625 C 13.570312 3.359375 11.570312 7.328125 11.191406 12.101562 Z M 12.464844 12.101562 C 12.9375 6.414062 15.792969 2.023438 19.246094 2.023438 L 19.246094 12.101562 Z M 20.519531 13.375 L 26.089844 13.375 C 26.09375 13.5 26.101562 13.621094 26.101562 13.75 C 26.101562 19.46875 23.695312 24.238281 20.519531 25.265625 Z M 23.695312 24.617188 C 25.910156 22.292969 27.375 18.292969 27.375 13.75 C 27.375 13.621094 27.367188 13.5 27.363281 13.375 L 31.347656 13.375 C 31.347656 18.476562 28.171875 22.839844 23.695312 24.617188 Z M 23.695312 24.617188 "/>
<path style=" stroke:none;fill-rule:nonzero;fill:rgb(10.980392%,44.313725%,85.490196%);fill-opacity:1;" d="M 11.605469 27.703125 L 11.605469 26.960938 C 13.371094 26.261719 14.722656 24.753906 15.21875 22.910156 C 15.75 22.429688 16.0625 21.738281 16.0625 21.015625 C 16.0625 20.148438 15.625 19.351562 14.90625 18.882812 C 13.9375 16.691406 11.789062 15.285156 9.375 15.285156 C 6.960938 15.285156 4.8125 16.691406 3.84375 18.882812 C 3.125 19.351562 2.6875 20.148438 2.6875 21.015625 C 2.6875 21.738281 3 22.429688 3.53125 22.910156 C 4.027344 24.753906 5.378906 26.261719 7.144531 26.960938 L 7.144531 27.703125 C 4.378906 28.507812 2.230469 30.78125 1.601562 33.617188 C 1.5625 33.804688 1.605469 34.003906 1.726562 34.152344 C 1.847656 34.304688 2.03125 34.390625 2.222656 34.390625 L 16.527344 34.390625 C 16.71875 34.390625 16.902344 34.304688 17.023438 34.152344 C 17.144531 34.003906 17.1875 33.804688 17.148438 33.617188 C 16.519531 30.78125 14.371094 28.507812 11.605469 27.703125 Z M 3.066406 33.117188 C 3.828125 30.96875 5.660156 29.320312 7.921875 28.816406 C 8.210938 28.753906 8.417969 28.496094 8.417969 28.195312 L 8.417969 26.511719 C 8.417969 26.230469 8.238281 25.984375 7.96875 25.902344 C 6.34375 25.402344 5.101562 24.066406 4.71875 22.410156 C 4.6875 22.261719 4.601562 22.132812 4.480469 22.042969 C 4.148438 21.796875 3.960938 21.425781 3.960938 21.015625 C 3.960938 20.542969 4.222656 20.109375 4.644531 19.886719 C 4.777344 19.816406 4.882812 19.703125 4.9375 19.5625 C 5.667969 17.738281 7.410156 16.558594 9.375 16.558594 C 11.339844 16.558594 13.082031 17.738281 13.8125 19.5625 C 13.867188 19.703125 13.972656 19.816406 14.105469 19.886719 C 14.527344 20.109375 14.789062 20.542969 14.789062 21.015625 C 14.789062 21.425781 14.601562 21.796875 14.273438 22.042969 C 14.148438 22.132812 14.0625 22.261719 14.03125 22.410156 C 13.648438 24.066406 12.40625 25.402344 10.78125 25.902344 C 10.511719 25.984375 10.332031 26.230469 10.332031 26.511719 L 10.332031 28.195312 C 10.332031 28.496094 10.539062 28.753906 10.828125 28.816406 C 13.089844 29.320312 14.921875 30.96875 15.683594 33.117188 Z M 3.066406 33.117188 "/>
<path style=" stroke:none;fill-rule:nonzero;fill:rgb(100%,36.470588%,36.470588%);fill-opacity:1;" d="M 25.019531 35 C 24.855469 35 24.691406 34.9375 24.570312 34.8125 L 22.316406 32.5625 C 22.066406 32.3125 22.066406 31.910156 22.316406 31.660156 C 22.566406 31.414062 22.96875 31.414062 23.21875 31.660156 L 25.46875 33.914062 C 25.71875 34.160156 25.71875 34.566406 25.46875 34.8125 C 25.34375 34.9375 25.183594 35 25.019531 35 Z M 25.019531 35 "/>
<path style=" stroke:none;fill-rule:nonzero;fill:rgb(100%,36.470588%,36.470588%);fill-opacity:1;" d="M 22.765625 35 C 22.605469 35 22.441406 34.9375 22.316406 34.8125 C 22.066406 34.566406 22.066406 34.160156 22.316406 33.914062 L 24.570312 31.660156 C 24.816406 31.414062 25.21875 31.414062 25.46875 31.660156 C 25.71875 31.910156 25.71875 32.3125 25.46875 32.5625 L 23.21875 34.8125 C 23.09375 34.9375 22.929688 35 22.765625 35 Z M 22.765625 35 "/>
<path style=" stroke:none;fill-rule:nonzero;fill:rgb(0%,83.137255%,4.313725%);fill-opacity:1;" d="M 32.34375 27.359375 C 31.113281 27.359375 30.113281 26.359375 30.113281 25.128906 C 30.113281 23.898438 31.113281 22.898438 32.34375 22.898438 C 33.570312 22.898438 34.570312 23.898438 34.570312 25.128906 C 34.570312 26.359375 33.570312 27.359375 32.34375 27.359375 Z M 32.34375 24.171875 C 31.816406 24.171875 31.386719 24.601562 31.386719 25.128906 C 31.386719 25.65625 31.816406 26.082031 32.34375 26.082031 C 32.871094 26.082031 33.296875 25.65625 33.296875 25.128906 C 33.296875 24.601562 32.871094 24.171875 32.34375 24.171875 Z M 32.34375 24.171875 "/>
<path style=" stroke:none;fill-rule:nonzero;fill:rgb(100%,77.254902%,1.568627%);fill-opacity:1;" d="M 2.867188 6.757812 C 2.703125 6.757812 2.539062 6.695312 2.414062 6.570312 L 0.613281 4.769531 C 0.496094 4.652344 0.429688 4.488281 0.429688 4.320312 C 0.429688 4.152344 0.496094 3.988281 0.613281 3.871094 L 2.414062 2.070312 C 2.664062 1.820312 3.066406 1.820312 3.316406 2.070312 L 5.117188 3.871094 C 5.367188 4.117188 5.367188 4.523438 5.117188 4.769531 L 3.316406 6.570312 C 3.191406 6.695312 3.027344 6.757812 2.867188 6.757812 Z M 1.964844 4.320312 L 2.867188 5.222656 L 3.765625 4.320312 L 2.867188 3.421875 Z M 1.964844 4.320312 "/>
</g>
</svg>
