<?xml version="1.0" encoding="UTF-8"?>
<svg xmlns="http://www.w3.org/2000/svg" xmlns:xlink="http://www.w3.org/1999/xlink" width="30px" height="30px" viewBox="0 0 35 35" version="1.1">
<g id="surface1">
<path style=" stroke:none;fill-rule:nonzero;fill:rgb(96.470588%,10.980392%,5.098039%);fill-opacity:1;" d="M 27.730469 5.117188 L 7.269531 5.117188 C 3.253906 5.117188 0 8.371094 0 12.386719 L 0 22.613281 C 0 26.628906 3.253906 29.882812 7.269531 29.882812 L 27.730469 29.882812 C 31.746094 29.882812 35 26.628906 35 22.613281 L 35 12.386719 C 35 8.371094 31.746094 5.117188 27.730469 5.117188 Z M 22.816406 17.996094 L 13.246094 22.5625 C 12.988281 22.683594 12.695312 22.496094 12.695312 22.214844 L 12.695312 12.800781 C 12.695312 12.515625 12.996094 12.328125 13.253906 12.457031 L 22.824219 17.308594 C 23.109375 17.453125 23.101562 17.859375 22.816406 17.996094 Z M 22.816406 17.996094 "/>
</g>
</svg>
