<svg height="50pt" viewBox="-61 0 511 512" width="50pt" xmlns="http://www.w3.org/2000/svg">
    <path d="m389.542969 512h-299.664063l-89.378906-92.625v-390.691406h389.042969zm0 0" fill="#00ddc1"/>
    <path d="m115.113281 0h160.226563v88.457031h-160.226563zm0 0" fill="#005fe4"/>
    <path d="m.5 419.375h89.296875v92.625zm0 0" fill="#00ccb2"/>
    <path d="m195.226562 28.683594h194.316407v483.316406h-194.316407zm0 0" fill="#00ccb2"/>
    <path d="m195.226562 0h80.117188v88.457031h-80.117188zm0 0" fill="#00317e"/>
    <path d="m130.597656 137.65625-17.84375 17.84375-17.839844-17.84375-21.246093 21.242188 17.84375 17.84375-17.84375 17.84375 21.246093 21.246093 17.839844-17.84375 17.84375 17.84375 21.246094-21.246093-17.84375-17.84375 17.84375-17.84375zm0 0"
          fill="#f03800"/>
    <path d="m130.597656 264.460938-17.84375 17.84375-17.839844-17.84375-21.246093 21.242187 17.84375 17.84375-17.84375 17.84375 21.246093 21.242187 17.839844-17.84375 17.84375 17.84375 21.246094-21.242187-17.84375-17.84375 17.84375-17.84375zm0 0"
          fill="#f03800"/>
    <g fill="#ffda2d">
        <path d="m182.714844 137.109375h135.386718v30.042969h-135.386718zm0 0"/>
        <path d="m182.714844 197.199219h135.386718v30.042969h-135.386718zm0 0"/>
        <path d="m182.714844 257.289062h135.386718v30.042969h-135.386718zm0 0"/>
        <path d="m182.714844 316.992188h135.386718v30.042968h-135.386718zm0 0"/>
        <path d="m182.714844 377.082031h135.386718v30.042969h-135.386718zm0 0"/>
    </g>
    <path d="m195.226562 137.109375h122.875v30.042969h-122.875zm0 0" fill="#fdbf00"/>
    <path d="m195.226562 197.199219h122.875v30.042969h-122.875zm0 0" fill="#fdbf00"/>
    <path d="m195.226562 257.289062h122.875v30.042969h-122.875zm0 0" fill="#fdbf00"/>
    <path d="m195.226562 316.992188h122.875v30.042968h-122.875zm0 0" fill="#fdbf00"/>
    <path d="m195.226562 377.082031h122.875v30.042969h-122.875zm0 0" fill="#fdbf00"/>
</svg>