<svg height="45pt" viewBox="0 -16 490.66667 490" width="45pt" xmlns="http://www.w3.org/2000/svg">
    <path d="m488.683594 198.746094c-1.601563-12.4375-8.640625-23.253906-19.308594-29.695313-10.496094-6.316406-23.125-7.488281-34.835938-3.113281-9.300781 3.496094-19.710937-1.324219-23.9375-10.753906-4.96875-11.136719-11.113281-21.800782-18.21875-31.699219-6.164062-8.578125-5.011718-19.84375 2.648438-26.15625 9.492188-7.785156 14.78125-19.308594 14.546875-31.59375-.253906-12.480469-6.121094-24-16.148437-31.574219-16.300782-12.351562-34.089844-22.636718-52.886719-30.550781-11.648438-4.882813-24.597657-4.222656-35.539063 1.792969-10.753906 5.910156-18.09375 16.257812-20.097656 28.375-1.640625 9.832031-10.816406 16.359375-21.441406 15.359375-11.921875-1.257813-24.359375-1.257813-36.308594 0-10.644531 1-19.773438-5.503907-21.417969-15.359375-2.027343-12.097656-9.34375-22.445313-20.09375-28.375-10.945312-6.039063-23.894531-6.675782-35.542969-1.792969-18.792968 7.894531-36.585937 18.175781-52.863281 30.527344-10.027343 7.597656-15.894531 19.09375-16.148437 31.574219-.238282 12.308593 5.074218 23.832031 14.570312 31.660156 7.65625 6.292968 8.789063 17.535156 2.621094 26.113281-7.125 9.898437-13.246094 20.5625-18.195312 31.699219-4.265626 9.472656-14.804688 14.207031-24.171876 10.6875-11.5-4.328125-24.085937-3.15625-34.625 3.179687-10.664062 6.421875-17.703124 17.257813-19.304687 29.675781-1.324219 10.132813-1.984375 20.480469-1.984375 30.761719s.660156 20.628907 1.984375 30.742188c1.601563 12.4375 8.640625 23.253906 19.304687 29.695312 10.496094 6.335938 23.148438 7.53125 34.839844 3.113281 9.34375-3.457031 19.734375 1.324219 23.933594 10.753907 4.972656 11.136719 11.117188 21.800781 18.21875 31.699219 6.167969 8.578124 5.015625 19.839843-2.644531 26.15625-9.492188 7.785156-14.785157 19.304687-14.546875 31.59375.253906 12.480468 6.121094 24 16.148437 31.574218 16.296875 12.351563 34.089844 22.632813 52.882813 30.546875 5.164062 2.179688 10.582031 3.246094 15.980468 3.246094 6.742188 0 13.484376-1.707031 19.5625-5.058594 10.75-5.910156 18.089844-16.253906 20.097657-28.371093 1.640625-9.855469 10.792969-16.449219 21.4375-15.359376 11.925781 1.257813 24.363281 1.257813 36.308593 0 10.582032-1.109374 19.777344 5.503907 21.421876 15.359376 2.023437 12.09375 9.34375 22.441406 20.09375 28.371093 10.945312 6.039063 23.894531 6.65625 35.542968 1.792969 18.792969-7.914062 36.585938-18.195312 52.882813-30.550781 10.027343-7.59375 15.894531-19.089844 16.152343-31.570313.234376-12.3125-5.078124-23.832031-14.59375-31.660156-7.660156-6.292969-8.789062-17.535156-2.625-26.113281 7.125-9.898438 13.25-20.5625 18.21875-31.679688 4.246094-9.449219 14.679688-14.207031 23.957032-10.773437l3.734375-9.984375-3.519531 10.070312c11.542968 4.332031 24.105468 3.15625 34.625-3.179687 10.664062-6.417969 17.707031-17.257813 19.304687-29.671875 1.300781-10.113281 1.964844-20.460938 1.964844-30.742188s-.664063-20.628906-1.984375-30.742187zm-243.351563 126.742187c-52.925781 0-96-43.074219-96-96 0-52.929687 43.074219-96 96-96 52.929688 0 96 43.070313 96 96 0 52.925781-43.070312 96-96 96zm0 0"
          fill="#455a64"/>
    <path d="m166.078125 458.628906c-5.394531 0-10.8125-1.085937-15.976563-3.242187-18.816406-7.9375-36.609374-18.21875-52.886718-30.550781-10.027344-7.59375-15.890625-19.113282-16.148438-31.613282-.214844-12.269531 5.078125-23.789062 14.570313-31.597656 7.660156-6.335938 8.8125-17.554688 2.644531-26.152344-7.125-9.898437-13.246094-20.585937-18.21875-31.722656-4.222656-9.429688-14.78125-14.125-23.914062-10.730469-11.753907 4.4375-24.363282 3.21875-34.859376-3.117187-10.6875-6.441406-17.703124-17.257813-19.304687-29.695313-1.324219-10.089843-1.984375-20.457031-1.984375-30.71875s.660156-20.628906 1.984375-30.761719c1.601563-12.417968 8.617187-23.234374 19.304687-29.675781 10.496094-6.335937 23.125-7.53125 34.625-3.179687 9.429688 3.5 19.949219-1.214844 24.171876-10.6875 4.949218-11.113282 11.09375-21.78125 18.21875-31.679688 6.164062-8.574218 5.035156-19.820312-2.625-26.132812-9.515626-7.828125-14.828126-19.351563-14.589844-31.636719.253906-12.480469 6.121094-24 16.125-31.597656 16.300781-12.328125 34.09375-22.613281 52.886718-30.546875 11.625-4.886719 24.554688-4.265625 35.542969 1.8125 10.75 5.910156 18.089844 16.257812 20.09375 28.375 1.644531 9.832031 10.753907 16.46875 21.417969 15.335937 11.96875-1.257812 24.40625-1.257812 36.308594 0 10.605468 1.175781 19.800781-5.503906 21.441406-15.335937 2.027344-12.117188 9.34375-22.464844 20.097656-28.375 10.984375-6.078125 23.914063-6.675782 35.539063-1.8125 18.816406 7.933594 36.609375 18.21875 52.886719 30.546875 10.027343 7.597656 15.894531 19.117187 16.148437 31.617187.234375 12.265625-5.054687 23.789063-14.570313 31.574219-7.660156 6.335937-8.808593 17.558594-2.644531 26.15625 7.125 9.898437 13.246094 20.585937 18.21875 31.722656 4.222657 9.449219 14.804688 14.097657 23.914063 10.730469 11.753906-4.394531 24.382812-3.222656 34.859375 3.113281 10.6875 6.441407 17.707031 17.257813 19.304687 29.695313 1.34375 10.113281 2.007813 20.480468 2.007813 30.742187s-.664063 20.628907-1.984375 30.761719c-1.601563 12.417969-8.621094 23.234375-19.308594 29.675781-10.472656 6.355469-23.082031 7.550781-34.621094 3.179688l-.238281-.085938c-9.085937-3.371093-19.667969 1.277344-23.933594 10.773438-4.949219 11.113281-11.09375 21.78125-18.21875 31.679687-6.164062 8.574219-5.035156 19.816406 2.625 26.132813 9.492188 7.808593 14.804688 19.328125 14.589844 31.617187-.253906 12.480469-6.121094 24-16.128906 31.59375-16.296875 12.332032-34.089844 22.613282-52.882813 30.546875-11.628906 4.886719-24.554687 4.246094-35.542968-1.8125-10.75-5.910156-18.089844-16.253906-20.09375-28.371093-1.644532-9.855469-10.859376-16.578126-21.421876-15.339844-11.964843 1.257812-24.402343 1.257812-36.308593 0-10.664063-1.238282-19.796875 5.503906-21.4375 15.339844-2.027344 12.117187-9.347657 22.460937-20.097657 28.371093-6.121093 3.394531-12.820312 5.078125-19.585937 5.078125zm-103.785156-187.988281c15.550781 0 30.421875 9.214844 37.25 24.425781 4.394531 9.855469 9.789062 19.242188 16.082031 27.988282 12.824219 17.835937 10.070312 41.496093-6.417969 55.042968-4.417969 3.644532-6.890625 9.023438-6.785156 14.738282.128906 5.910156 2.921875 11.394531 7.699219 15.019531 14.847656 11.265625 31.105468 20.652343 48.277344 27.882812 5.570312 2.347657 11.757812 2.089844 16.960937-.832031 5.078125-2.792969 8.40625-7.488281 9.34375-13.183594 3.519531-21.164062 22.550781-35.5 44.714844-33.046875 10.453125 1.089844 21.355469 1.089844 31.851562 0 22.121094-2.238281 41.152344 11.90625 44.691407 33.046875.960937 5.71875 4.269531 10.390625 9.347656 13.183594 5.226562 2.902344 11.390625 3.179688 16.957031.832031 17.175781-7.230469 33.410156-16.597656 48.300781-27.882812 4.777344-3.625 7.550782-9.109375 7.679688-15.019531.105468-5.738282-2.347656-11.09375-6.761719-14.71875-16.472656-13.566407-19.246094-37.226563-6.445313-55.0625 6.292969-8.722657 11.691407-18.132813 16.066407-27.945313 8.851562-19.753906 31.1875-29.398437 50.855469-22.039063l.195312.066407c5.480469 2.070312 11.328125 1.492187 16.234375-1.453125 5.035156-3.050782 8.402344-8.210938 9.152344-14.121094 1.191406-9.28125 1.789062-18.730469 1.789062-28.074219s-.597656-18.796875-1.8125-28.011719c-.746093-5.929687-4.09375-11.113281-9.152343-14.144531-4.90625-2.964843-10.792969-3.496093-16.128907-1.492187-19.964843 7.445312-42.257812-2.175782-51.113281-21.886719-4.394531-9.855469-9.792969-19.242187-16.085938-27.992187-12.820312-17.832032-10.070312-41.492188 6.421876-55.039063 4.417968-3.648437 6.890624-9.023437 6.785156-14.742187-.128906-5.90625-2.921875-11.390626-7.703125-15.015626-14.847657-11.265624-31.101563-20.652343-48.277344-27.882812-5.546875-2.328125-11.710937-2.050781-16.957031.832031-5.078125 2.792969-8.40625 7.488281-9.347656 13.183594-3.539063 21.160156-22.738282 35.285156-44.714844 33.042969-10.453125-1.085938-21.351563-1.085938-31.847656 0-21.910157 2.410156-41.152344-11.925782-44.695313-33.066406-.960937-5.714844-4.265625-10.386719-9.34375-13.183594-5.183594-2.878906-11.371094-3.15625-16.960937-.832032-17.171876 7.234376-33.429688 16.597657-48.296876 27.882813-4.777343 3.628906-7.550781 9.109375-7.679687 15.019531-.105469 5.738282 2.347656 11.09375 6.761719 14.71875 16.492187 13.570313 19.265625 37.226563 6.441406 55.0625-6.292969 8.726563-11.6875 18.132813-16.0625 27.945313-8.851562 19.777343-31.210938 29.484375-50.921875 22.015625-5.609375-2.089844-11.476563-1.511719-16.363281 1.410156-5.035156 3.050781-8.40625 8.210938-9.152344 14.121094-1.195312 9.257812-1.792969 18.710937-1.792969 28.054687s.597657 18.792969 1.816407 28.011719c.746093 5.929688 4.09375 11.113281 9.148437 14.140625 4.910156 2.945313 10.773437 3.480469 16.128906 1.496094 4.542969-1.6875 9.238281-2.496094 13.867188-2.496094zm0 0"/>
    <path d="m245.332031 325.488281c-52.925781 0-96-43.074219-96-96 0-52.929687 43.074219-96 96-96 52.929688 0 96 43.070313 96 96 0 52.925781-43.070312 96-96 96zm0-170.667969c-41.171875 0-74.664062 33.496094-74.664062 74.667969s33.492187 74.667969 74.664062 74.667969c41.175781 0 74.667969-33.496094 74.667969-74.667969s-33.492188-74.667969-74.667969-74.667969zm0 0"/>
</svg>