<svg height="65pt" viewBox="-99 0 512 512" width="65pt" xmlns="http://www.w3.org/2000/svg">
    <path d="m306.476562 368.167969v136.332031h-298.976562v-136.332031c0-15.125 7.464844-28.496094 18.910156-36.625 3.851563-2.757813 8.160156-4.898438 12.78125-6.328125 4.183594-1.277344 8.625-1.976563 13.226563-1.976563h209.128906c4.613281 0 9.054687.699219 13.238281 1.976563 4.570313 1.40625 8.835938 3.53125 12.65625 6.234375 11.511719 8.128906 19.035156 21.542969 19.035156 36.71875zm0 0"
          fill="#006ac3"/>
    <path d="m306.472656 368.167969v136.332031h-18.402344v-136.332031c0-20.210938-13.339843-37.300781-31.691406-42.949219-4.175781-1.28125-8.621094-1.980469-13.226562-1.980469h18.402344c4.605468 0 9.050781.699219 13.226562 1.980469 18.351562 5.648438 31.691406 22.738281 31.691406 42.949219zm0 0"
          fill="#0057a1"/>
    <path d="m287.441406 331.449219-94.871094 106.089843c-9.074218 10.148438-22.082031 15.96875-35.6875 15.96875-13.609374 0-26.609374-5.820312-35.683593-15.96875l-94.789063-105.996093c3.851563-2.757813 8.160156-4.898438 12.78125-6.328125 4.183594-1.277344 8.625-1.976563 13.226563-1.976563h209.128906c4.609375 0 9.054687.699219 13.238281 1.976563 4.570313 1.40625 8.835938 3.53125 12.65625 6.234375zm0 0"
          fill="#ff6a3d"/>
    <path d="m55.277344 323.238281 86.089844 96.265625c8.273437 9.253906 22.757812 9.253906 31.03125 0l86.089843-96.265625zm0 0"
          fill="#e0d3ce"/>
    <path d="m80.890625 323.238281 72.105469 80.632813c2.074218 2.316406 5.699218 2.316406 7.769531 0l72.109375-80.632813zm0 0"
          fill="#fff5f5"/>
    <g fill="#d68a5a">
        <path d="m156.988281 355.296875c-15.933593 0-28.847656-12.914063-28.847656-28.84375v-65.28125h57.691406v65.28125c0 15.929687-12.914062 28.84375-28.84375 28.84375zm0 0"/>
        <path d="m80.667969 176.464844c0 16.445312-13.332031 29.777344-29.777344 29.777344s-29.777344-13.332032-29.777344-29.777344c0-16.445313 13.332031-29.777344 29.777344-29.777344s29.777344 13.332031 29.777344 29.777344zm0 0"/>
        <path d="m292.863281 176.464844c0 16.445312-13.332031 29.777344-29.777343 29.777344-16.445313 0-29.777344-13.332032-29.777344-29.777344 0-16.445313 13.332031-29.777344 29.777344-29.777344 16.445312 0 29.777343 13.332031 29.777343 29.777344zm0 0"/>
    </g>
    <path d="m156.988281 294.945312c-49.648437 0-89.898437-40.25-89.898437-89.898437v-59.679687c0-49.648438 40.25-89.898438 89.898437-89.898438 49.648438 0 89.898438 40.25 89.898438 89.898438v59.679687c0 49.648437-40.25 89.898437-89.898438 89.898437zm0 0"
          fill="#f5a871"/>
    <path d="m173.589844 30.996094v42.851562c0 32.535156-19 60.644532-46.503906 73.84375-10.691407 5.121094-22.675782 7.996094-35.339844 7.996094h-16.394532c-20.105468 0-36.402343-16.296875-36.402343-36.398438v-16.398437c0-37.417969 25.117187-68.980469 59.421875-78.738281 7.121094-2.019532 14.640625-3.101563 22.421875-3.101563h42.847656c5.496094 0 9.949219 4.453125 9.949219 9.945313zm0 0"
          fill="#c86d3d"/>
    <path d="m173.589844 30.996094v42.851562c0 32.535156-19 60.644532-46.503906 73.84375-18.449219-20.292968-29.710938-47.246094-29.710938-76.769531v-37.679687c0-3.121094.347656-6.167969.996094-9.089844 7.121094-2.019532 14.640625-3.101563 22.421875-3.101563h42.847656c5.492187 0 9.949219 4.453125 9.949219 9.945313zm0 0"
          fill="#ac5e33"/>
    <path d="m243.148438 431.472656c0 12.167969-9.863282 22.03125-22.03125 22.03125-12.167969 0-22.03125-9.863281-22.03125-22.03125 0-12.167968 9.863281-22.03125 22.03125-22.03125 12.167968 0 22.03125 9.863282 22.03125 22.03125zm0 0"
          fill="#ffde46"/>
    <path d="m243.152344 431.472656c0 12.164063-9.867188 22.03125-22.035156 22.03125-4.105469 0-7.964844-1.132812-11.257813-3.09375 8.921875-2.8125 15.386719-11.160156 15.386719-21.007812 0-8.046875-4.316406-15.085938-10.773438-18.9375 2.101563-.667969 4.328125-1.023438 6.644532-1.023438 12.167968 0 22.035156 9.867188 22.035156 22.03125zm0 0"
          fill="#f9c60b"/>
    <path d="m292.082031 7.5h-153.046875c-14.21875 0-25.746094 11.527344-25.746094 25.742188v37.679687c0 54.300781 44.019532 98.316406 98.316407 98.316406h36.5c14.871093 0 26.925781-12.054687 26.925781-26.921875v-36.5c0-11.253906-1.898438-22.0625-5.378906-32.132812 20.957031-8.40625 35.761718-28.894532 35.761718-52.855469-.003906-7.359375-5.96875-13.328125-13.332031-13.328125zm0 0"
          fill="#d77f4f"/>
    <path d="m269.65625 73.6875c3.476562 10.066406 5.371094 20.878906 5.371094 32.125v36.5c0 14.683594-11.75 26.621094-26.363282 26.914062 5.414063-.292968 9.710938-4.777343 9.710938-10.261718v-53.148438c0-9.148437-1.5-18.121094-4.453125-26.683594l-2.332031-6.746093c-1.597656-4.621094.714844-9.683594 5.253906-11.503907l6.609375-2.648437c14.34375-5.757813 23.949219-18.910156 25.175781-34.085937v-6.511719c0-4.519531-2.726562-8.453125-6.679687-10.136719h10.136719c3.671874 0 7.011718 1.496094 9.429687 3.902344 2.402344 2.414062 3.902344 5.753906 3.902344 9.429687-.003907 23.953125-14.8125 44.445313-35.761719 52.855469zm0 0"
          fill="#c86d3d"/>
    <path d="m306.476562 428.761719c-4.144531 0-7.5 3.355469-7.5 7.5v68.238281c0 4.140625 3.355469 7.5 7.5 7.5 4.140626 0 7.5-3.359375 7.5-7.5v-68.238281c0-4.144531-3.359374-7.5-7.5-7.5zm0 0"/>
    <path d="m292.289062 325.738281c-.347656-.296875-.71875-.566406-1.105468-.789062-8.433594-5.800781-18.640625-9.207031-29.628906-9.207031h-68.222657v-20.335938c33.523438-13.535156 57.855469-45.199219 60.761719-82.777344 2.929688.726563 5.949219 1.113282 8.992188 1.113282 20.554687 0 37.277343-16.722657 37.277343-37.277344 0-13.179688-6.886719-25.171875-17.917969-31.863282.050782-.757812.082032-1.515624.082032-2.285156v-36.5c0-9.554687-1.269532-18.976562-3.777344-28.097656 20.960938-11.109375 34.160156-32.753906 34.160156-56.890625.003906-11.484375-9.339844-20.828125-20.828125-20.828125h-153.046875c-11.167968 0-21.058594 5.539062-27.089844 14.007812-21.589843 2.125-41.570312 11.96875-56.46875 27.921876-15.496093 16.59375-24.03125 38.246093-24.03125 60.964843v16.390625c0 8.160156 2.246094 15.808594 6.144532 22.363282-14.003906 5.367187-23.980469 18.945312-23.980469 34.816406 0 20.554687 16.726563 37.277344 37.277344 37.277344 3.035156 0 6.0625-.382813 8.996093-1.109376 2.910157 37.578126 27.238282 69.238282 60.757813 82.773438v20.335938h-68.21875c-11.0625 0-21.332031 3.453124-29.800781 9.328124-.34375.203126-.671875.441407-.992188.707032-13.09375 9.539062-21.628906 24.980468-21.628906 42.386718v136.332032c0 4.144531 3.359375 7.5 7.5 7.5s7.5-3.355469 7.5-7.5v-136.332032c0-10.175781 4.089844-19.410156 10.699219-26.164062l89.910156 100.539062c10.492187 11.734376 25.539063 18.464844 41.273437 18.464844 14.3125 0 28.039063-5.578125 38.304688-15.414062 5.015625 9.175781 14.757812 15.414062 25.929688 15.414062 16.285156 0 29.53125-13.25 29.53125-29.53125 0-12.273437-7.527344-22.816406-18.203126-27.269531l55.722657-62.3125c6.675781 6.761719 10.808593 16.042969 10.808593 26.273437v33.574219c0 4.140625 3.355469 7.5 7.5 7.5 4.140626 0 7.5-3.359375 7.5-7.5v-33.574219c0-17.429687-8.558593-32.890624-21.6875-42.425781zm-127.800781 36.277344c15.085938-3.179687 26.746094-15.738281 28.582031-31.273437h48.644532l-74.910156 83.761718c-.703126.785156-1.480469 1.464844-2.316407 2.050782zm120.875-185.550781c0 12.285156-9.992187 22.277344-22.277343 22.277344-3.003907 0-5.964844-.613282-8.699219-1.773438v-20.8125c9.957031-1.847656 18.425781-7.988281 23.394531-16.429688 4.738281 4.15625 7.582031 10.199219 7.582031 16.738282zm-238.917969-73.570313c0-35.570312 25.472657-65.902343 59.5-72.839843-.097656 1.050781-.15625 2.113281-.15625 3.1875v37.683593c0 7.628907.824219 15.269531 2.453126 22.703125.886718 4.046875 4.886718 6.609375 8.929687 5.726563 4.046875-.886719 6.609375-4.882813 5.722656-8.929688-1.394531-6.386719-2.101562-12.949219-2.101562-19.5v-37.683593c0-10.058594 8.183593-18.242188 18.242187-18.242188h153.050782c3.210937 0 5.828124 2.617188 5.828124 5.828125 0 20.316406-12.1875 38.328125-31.050781 45.898437-3.714843 1.488282-5.605469 5.628907-4.296875 9.410157 3.292969 9.53125 4.964844 19.515625 4.964844 29.679687v36.5c0 10.710938-8.714844 19.425782-19.425781 19.425782h-36.5c-31.050781 0-59.628907-15.617188-76.449219-41.777344-2.238281-3.484375-6.878906-4.492188-10.363281-2.25-3.484375 2.238281-4.492188 6.878906-2.253907 10.363281 2.191407 3.40625 4.5625 6.652344 7.082032 9.746094-11.441406 6.789062-24.441406 10.367187-37.875 10.367187h-16.394532c-15.9375 0-28.90625-12.964844-28.90625-28.902344zm-17.835937 73.570313c0-11.605469 8.921875-21.160156 20.265625-22.183594 3.25 2.464844 6.851562 4.480469 10.714844 5.972656v36.71875c-2.742188 1.171875-5.660156 1.769532-8.699219 1.769532-12.285156 0-22.28125-9.992188-22.28125-22.277344zm45.980469 28.582031v-41.875c.253906.003906.507812.019531.761718.019531h16.394532c17.265625 0 33.9375-4.921875 48.363281-14.230468 19.265625 17.703124 44.582031 27.777343 71.496094 27.777343h27.78125v28.308594c0 45.433594-36.964844 82.398437-82.398438 82.398437-45.433593 0-82.398437-36.964843-82.398437-82.398437zm82.398437 97.398437c7.328125 0 14.472657-.820312 21.34375-2.363281v26.371094c0 11.769531-9.574219 21.34375-21.34375 21.34375s-21.347656-9.574219-21.347656-21.34375v-26.371094c6.875 1.542969 14.015625 2.363281 21.347656 2.363281zm-.105469 143.558594c-11.472656 0-22.441406-4.90625-30.09375-13.464844l-88.535156-99.003906c4.230469-1.738281 8.847656-2.71875 13.683594-2.78125l34.074219 38.105469c1.484375 1.65625 3.535156 2.5 5.59375 2.5 1.78125 0 3.566406-.628906 4.996093-1.910156 3.089844-2.761719 3.355469-7.503907.59375-10.589844l-25.144531-28.117187h48.851563c1.835937 15.53125 13.496094 28.09375 28.585937 31.273437v54.675781c-.914062-.617187-1.769531-1.335937-2.53125-2.1875l-26.703125-29.859375c-2.761718-3.085937-7.5-3.351562-10.589844-.589843-3.085937 2.761718-3.351562 7.5-.589843 10.589843l26.703125 29.855469c5.363281 6 13.058594 9.441406 21.105468 9.441406 8.046876 0 15.738282-3.441406 21.105469-9.441406l83.84375-93.753906c4.851563.039062 9.484375 1.003906 13.734375 2.726562l-62.136718 69.488282c-11.171876 3.015624-19.742188 12.425781-21.507813 24.050781l-4.945313 5.527343c-7.648437 8.558594-18.621093 13.464844-30.09375 13.464844zm64.234376 0c-8.011719 0-14.53125-6.519531-14.53125-14.53125 0-8.011718 6.519531-14.53125 14.53125-14.53125 8.011718 0 14.53125 6.519532 14.53125 14.53125 0 8.011719-6.519532 14.53125-14.53125 14.53125zm0 0"/>
    <path d="m58.421875 452.832031c-4.144531 0-7.5 3.359375-7.5 7.5v43.710938c0 4.144531 3.355469 7.5 7.5 7.5 4.140625 0 7.5-3.355469 7.5-7.5v-43.710938c0-4.140625-3.359375-7.5-7.5-7.5zm0 0"/>
    <path d="m255.460938 452.832031c-4.140626 0-7.5 3.359375-7.5 7.5v43.710938c0 4.144531 3.359374 7.5 7.5 7.5 4.140624 0 7.5-3.355469 7.5-7.5v-43.710938c0-4.140625-3.359376-7.5-7.5-7.5zm0 0"/>
    <path d="m120.976562 198.933594-.09375-6.242188c-.066406-4.140625-3.464843-7.453125-7.617187-7.382812-4.140625.0625-7.445313 3.472656-7.382813 7.613281l.097657 6.246094c.0625 4.101562 3.410156 7.382812 7.496093 7.382812h.121094c4.136719-.0625 7.445313-3.472656 7.378906-7.617187zm0 0"/>
    <path d="m200.378906 206.550781h.121094c4.085938 0 7.429688-3.28125 7.496094-7.382812l.097656-6.246094c.0625-4.140625-3.242188-7.550781-7.382812-7.613281-4.152344-.066406-7.550782 3.238281-7.617188 7.382812l-.097656 6.242188c-.0625 4.144531 3.242187 7.554687 7.382812 7.617187zm0 0"/>
    <path d="m195.136719 233.054688c-2.367188-3.398438-7.039063-4.238282-10.4375-1.871094-6.476563 4.507812-16.875 7.199218-27.816407 7.199218-10.941406 0-21.339843-2.691406-27.816406-7.199218-3.398437-2.367188-8.074218-1.527344-10.4375 1.871094-2.367187 3.398437-1.53125 8.074218 1.871094 10.441406 9.027344 6.28125 22.289062 9.886718 36.382812 9.886718 14.097657 0 27.359376-3.601562 36.386719-9.886718 3.398438-2.367188 4.234375-7.042969 1.867188-10.441406zm0 0"/>
</svg>