<svg id="Layer_1" enable-background="new 0 0 512.002 512.002" height="100" viewBox="0 0 512.002 512.002" width="100"
     xmlns="http://www.w3.org/2000/svg">
    <g>
        <g clip-rule="evenodd" fill-rule="evenodd">
            <path d="m391.001 180c5.517 0 10.63 1.811 14.777 4.867l.223-.832v-24.035c0-82.499-67.5-150-150-150s-150 67.5-150 150v24.035.999c4.186-3.157 9.384-5.033 15-5.033h5c60.914 0 114.234-23.332 130-56.885 15.765 33.553 69.085 56.884 129.999 56.884z"
                  fill="#c68a65"/>
            <path d="m171.001 229.997c0-22.092 17.908-40 40-40s40 17.908 40 40-17.908 40-40 40-40-17.908-40-40zm234.777-45.13c-4.147-3.056-9.26-4.867-14.777-4.867h-5.001c-60.914 0-114.234-23.332-130-56.885-15.766 33.554-69.085 56.885-130 56.885h-5c-5.616 0-10.814 1.876-15 5.033-6.063 4.573-10 11.832-10 19.967 0 13.75 11.25 25 25 25h5.384c4.166 54.11 41.839 99.218 92.162 114.467 11.872 3.598 24.448 5.533 37.454 5.533 68.137 0 124.467-53.125 129.616-120h5.384c13.75 0 25-11.25 25-25 .001-8.233-4.033-15.57-10.222-20.133zm-144.777 45.13c0-22.092 17.908-40 40-40 22.091 0 40 17.908 40 40s-17.908 40-40 40-40-17.908-40-40z"
                  fill="#ffdcd5"/>
            <ellipse cx="211.001" cy="229.997" fill="#cff5fd" rx="40" ry="40"
                     transform="matrix(.987 -.158 .158 .987 -33.731 36.279)"/>
            <ellipse cx="301.001" cy="229.997" fill="#cff5fd" rx="40" ry="40"
                     transform="matrix(.707 -.707 .707 .707 -74.471 280.204)"/>
            <path d="m218.547 344.468c-50.323-15.249-87.996-60.357-92.162-114.467h-5.384c6.856 25.588-22.677 55.947-28.937 82.73-6.679 28.575.185 64.238 48.184 77.1 8.158-8.564 17.249-16.231 27.105-22.834 10.073-6.748 20.945-12.386 32.438-16.733 6.087-2.303 12.348-4.244 18.756-5.796z"
                  fill="#c68a65"/>
            <path d="m385.617 230.001c-4.165 54.097-41.822 99.197-92.127 114.456l.061.034c6.375 1.548 12.604 3.481 18.661 5.772 11.493 4.348 22.365 9.985 32.438 16.733 9.857 6.603 18.947 14.27 27.104 22.834 48-12.862 54.863-48.525 48.184-77.1-6.26-26.783-35.793-57.142-28.937-82.73h-5.384z"
                  fill="#c68a65"/>
            <path d="m312.211 350.263c-6.057-2.291-12.286-4.224-18.661-5.772l-.061-.034c-11.882 3.604-24.47 5.544-37.488 5.544-13.006 0-25.582-1.936-37.454-5.533-6.408 1.552-12.669 3.493-18.756 5.795l12.743 53.407h86.932z"
                  fill="#ffdcd5"/>
            <path d="m299.467 403.67h-86.931l23.465 98.332h40.001z" fill="#6d91ac"/>
            <path d="m236.001 502.002-23.465-98.332-12.745-53.407c-11.493 4.347-22.365 9.985-32.438 16.733l-2.218 66.174 28.5 12.5-33.5 28 34 28.332z"
                  fill="#c68a86"/>
            <path d="m299.467 403.67-23.465 98.332h41.866l34-28.332-33.5-28 28.5-12.5-2.218-66.174c-10.073-6.748-20.945-12.386-32.438-16.733z"
                  fill="#c68a86"/>
            <g fill="#d1a19e">
                <path d="m318.368 445.67 33.5 28-34 28.332h98.133v-2.002c0-42.589-16.866-81.427-44.247-110.171-8.158-8.563-17.249-16.23-27.105-22.834l2.218 66.174z"/>
                <path d="m160.135 473.67 33.5-28-28.5-12.5 2.218-66.174c-9.856 6.603-18.947 14.271-27.105 22.834-27.381 28.743-44.247 67.581-44.247 110.17v2.001h98.133z"/>
            </g>
        </g>
        <g>
            <path d="m296.002 240.001c5.522 0 10-4.477 10-10v-.008c0-5.523-4.478-9.996-10-9.996s-10 4.481-10 10.004 4.478 10 10 10z"/>
            <path d="m215.999 240.001c5.523 0 10-4.477 10-10v-.008c0-5.523-4.477-9.996-10-9.996s-10 4.481-10 10.004 4.477 10 10 10z"/>
            <path d="m274.208 288.804c-4.863 4.863-11.329 7.542-18.208 7.542-6.878 0-13.344-2.678-18.208-7.542-3.905-3.905-10.237-3.905-14.143 0s-3.905 10.237 0 14.143c8.641 8.641 20.13 13.399 32.35 13.399 12.221 0 23.709-4.759 32.35-13.4 3.905-3.905 3.905-10.237 0-14.142-3.904-3.906-10.236-3.906-14.141 0z"/>
            <path d="m425.389 361.452c9.044-18.616 7.323-38.007 4.286-50.997-2.728-11.672-9.073-23.38-15.209-34.702-6.958-12.839-14.107-26.04-14.458-36.935 14.947-3.985 25.993-17.631 25.993-33.817 0-9.513-3.82-18.147-10-24.461v-20.54c0-42.571-16.688-82.705-46.992-113.008-30.303-30.304-70.436-46.992-113.008-46.992s-82.706 16.688-113.009 46.991-46.991 70.437-46.991 113.009v20.539c-6.18 6.315-10 14.949-10 24.462 0 16.186 11.046 29.832 25.993 33.817-.351 10.895-7.5 24.096-14.458 36.935-6.137 11.323-12.482 23.031-15.21 34.703-3.037 12.992-4.757 32.388 4.291 51.005 7.123 14.656 19.336 25.699 36.366 32.982-23.849 29.957-36.982 67.43-36.982 105.557v2.001c0 5.523 4.477 10 10 10h320c5.522 0 10-4.477 10-10v-2.001c0-38.126-13.132-75.601-36.981-105.558 17.033-7.285 29.247-18.33 36.369-32.99zm-50.759 17.079c-15.292-14.908-33.268-26.862-52.807-35.157 30.188-16.243 53.971-43.255 65.857-75.967 2.771 6.009 6.003 11.974 9.202 17.875 5.761 10.629 11.201 20.669 13.318 29.725 4.263 18.235 4.981 50.047-35.57 63.524zm-37.984 48.203-22.294 9.779c-3.17 1.39-5.396 4.321-5.884 7.748-.487 3.427.831 6.862 3.487 9.083l24.306 20.315-22.013 18.343h-25.579l30.547-128.007c5.399 2.502 10.608 5.304 15.609 8.385zm-92.751 65.268-18.692-78.332h61.597l-18.692 78.332zm-46.14 0-22.014-18.343 24.306-20.315c2.656-2.22 3.975-5.656 3.487-9.083s-2.714-6.358-5.884-7.748l-22.295-9.779 1.823-54.36c5.001-3.079 10.209-5.881 15.607-8.382l30.547 128.009h-25.577zm95.81-137.19c2.297.597 4.571 1.241 6.818 1.937l-8.811 36.922h-71.142l-8.811-36.922c2.247-.696 4.52-1.341 6.816-1.937 11.992 3.38 24.597 5.19 37.565 5.19 12.969-.001 25.573-1.81 37.565-5.19zm-37.564-334.812c77.197 0 140 62.804 140 140v10.363c-1.634-.235-3.302-.363-5-.363h-5.001c-28.111 0-55.785-5.334-77.922-15.021-21.152-9.256-36.433-22.082-43.026-36.116-1.648-3.508-5.176-5.748-9.051-5.748s-7.402 2.24-9.051 5.747c-6.594 14.035-21.875 26.861-43.027 36.117-22.137 9.687-49.81 15.021-77.922 15.021h-5c-1.698 0-3.366.128-5 .363v-10.363c0-3.364.127-6.699.361-10.004 17.014-.036 33.421-.414 51.624-4.414 5.394-1.186 8.806-6.52 7.621-11.914-1.186-5.395-6.521-8.805-11.914-7.621-15.278 3.358-29.188 3.862-44.442 3.938 13.777-62.82 69.854-109.985 136.75-109.985zm-150 185c0-8.271 6.729-15 15-15h5c31.257 0 60.974-5.774 85.939-16.699 19.028-8.326 33.976-19.083 44.061-31.59 10.084 12.508 25.032 23.264 44.06 31.59 24.966 10.925 54.683 16.699 85.939 16.699h5.001c8.271 0 15 6.729 15 15s-6.729 15-15 15h-5.385c-5.226 0-9.569 4.022-9.971 9.232-4.781 62.113-57.336 110.768-119.645 110.768s-114.863-48.655-119.645-110.768c-.401-5.21-4.746-9.232-9.971-9.232h-5.384c-8.27.001-14.999-6.728-14.999-15zm-4.199 110.007c2.116-9.056 7.558-19.095 13.318-29.725 3.199-5.902 6.431-11.867 9.202-17.876 11.886 32.712 35.669 59.725 65.857 75.968-19.538 8.295-37.514 20.249-52.805 35.157-40.552-13.476-39.835-45.287-35.572-63.524zm54.856 72.553-1.518 45.276c-.137 4.089 2.231 7.85 5.978 9.493l13.722 6.019-21.118 17.651c-2.275 1.902-3.589 4.715-3.587 7.68s1.32 5.777 3.599 7.675l12.779 10.649h-60.302c2.159-41.139 20.899-78.391 50.447-104.443zm188.832 104.442 12.779-10.649c2.278-1.898 3.597-4.71 3.599-7.675s-1.312-5.778-3.587-7.68l-21.117-17.651 13.721-6.019c3.747-1.643 6.115-5.403 5.978-9.493l-1.517-45.268c29.545 26.055 48.285 63.308 50.447 104.435z"/>
            <path d="m211.001 279.997c19.768 0 36.89-11.532 45-28.22 8.11 16.688 25.232 28.22 45 28.22 27.57 0 50.001-22.43 50.001-50s-22.431-50-50.001-50c-19.768 0-36.89 11.532-45 28.221-8.11-16.688-25.232-28.221-45-28.221-27.57 0-50 22.43-50 50s22.43 50 50 50zm89.999-80c16.543 0 30.001 13.458 30.001 30s-13.458 30-30.001 30c-16.542 0-30-13.458-30-30s13.458-30 30-30zm-89.999 0c16.542 0 30 13.458 30 30s-13.458 30-30 30-30-13.458-30-30 13.458-30 30-30z"/>
            <path d="m207.535 128.856c5.523 0 10-4.477 10-10s-4.477-10-10-10h-.007c-5.523 0-9.996 4.477-9.996 10s4.48 10 10.003 10z"/>
        </g>
    </g>
</svg>