<svg height="50pt" viewBox="0 0 512.02481 512" width="50pt" xmlns="http://www.w3.org/2000/svg">
    <path d="m474.691406 4.578125c-2.003906-2.859375-5.269531-4.5664062-8.746094-4.5664062h-220.609374c-17.640626 0-32 14.3593752-32 32.0000002v384c0 17.644531 14.359374 32 32 32h64c4.480468 0 8.46875-2.792969 10.027343-6.996094l156.609375-426.667969c1.171875-3.261718.722656-6.910156-1.28125-9.769531zm0 0"
          fill="#607d8b"/>
    <g fill="#455a64">
        <path d="m465.945312.0117188c-6.25 0-12.332031 1.2578122-18.175781 3.7109372l-121.175781 51.96875c-16.957031 7.234375-27.921875 23.871094-27.921875 42.328125v367.933594c0 25.386719 20.671875 46.058594 46.058594 46.058594 6.25 0 12.328125-1.257813 18.175781-3.710938l121.171875-51.96875c16.980469-7.253906 27.945313-23.871093 27.945313-42.324219v-367.9375c-.019532-25.386718-20.691407-46.0585932-46.078126-46.0585932zm0 0"/>
        <path d="m191.769531 303.714844-14.144531-123.882813c-3.347656-29.546875-26.753906-51.820312-54.398438-51.820312h-54.445312c-27.648438 0-51.050781 22.273437-54.398438 51.820312l-14.144531 123.902344c-1.171875 10.347656 2.027344 20.652344 8.769531 28.203125 5.800782 6.527344 13.546876 10.304688 21.90625 10.792969l11.777344 159.425781c.425782 5.546875 5.054688 9.855469 10.644532 9.855469h85.335937c5.585937 0 10.21875-4.308594 10.644531-9.875l11.773438-159.425781c8.386718-.46875 16.109375-4.265626 21.910156-10.792969 6.761719-7.554688 9.941406-17.835938 8.769531-28.203125zm0 0"/>
        <path d="m149.335938 53.347656c0 29.453125-23.878907 53.332032-53.332032 53.332032-29.457031 0-53.332031-23.878907-53.332031-53.332032 0-29.457031 23.875-53.3359372 53.332031-53.3359372 29.453125 0 53.332032 23.8789062 53.332032 53.3359372zm0 0"/>
    </g>
    <path d="m344.730469 512.011719c-25.386719 0-46.058594-20.671875-46.058594-46.058594v-367.933594c0-18.457031 10.964844-35.09375 27.945313-42.328125l121.171874-51.96875c5.824219-2.453125 11.90625-3.7109372 18.15625-3.7109372 25.386719 0 46.058594 20.6718752 46.058594 46.0585932v367.9375c0 18.453126-10.964844 35.09375-27.945312 42.324219l-121.175782 51.96875c-5.824218 2.453125-11.902343 3.710938-18.152343 3.710938zm121.214843-490.664063c-3.351562 0-6.65625.660156-9.792968 2.003906l-121.152344 51.96875c-9.128906 3.859376-14.996094 12.777344-14.996094 22.699219v367.933594c0 17.003906 18.582032 29.503906 34.515625 22.71875l121.152344-51.964844c9.132813-3.882812 15-12.800781 15-22.699219v-367.9375c0-13.632812-11.09375-24.722656-24.726563-24.722656zm0 0"/>
    <path d="m138.671875 512.011719h-85.335937c-5.589844 0-10.21875-4.308594-10.644532-9.875l-11.777344-159.425781c-8.382812-.46875-16.105468-4.265626-21.90625-10.792969-6.742187-7.554688-9.941406-17.859375-8.769531-28.203125l14.144531-123.90625c3.347657-29.523438 26.75-51.796875 54.398438-51.796875h54.464844c27.648437 0 51.050781 22.273437 54.398437 51.820312l14.144531 123.902344c1.175782 10.347656-2.027343 20.652344-8.765624 28.203125-5.804688 6.527344-13.546876 10.304688-21.910157 10.792969l-11.777343 159.425781c-.445313 5.546875-5.078126 9.855469-10.664063 9.855469zm-75.414063-21.332031h65.492188l11.777344-159.382813c.425781-5.566406 5.054687-9.875 10.644531-9.875h8.105469c3.925781 0 6.59375-2.304687 7.808594-3.714844 2.710937-3.050781 3.988281-7.253906 3.476562-11.582031l-14.144531-123.882812c-2.132813-18.753907-16.402344-32.894532-33.191407-32.894532h-54.445312c-16.789062 0-31.058594 14.140625-33.195312 32.894532l-14.140626 123.902343c-.492187 4.332031.765626 8.535157 3.476563 11.585938 1.234375 1.386719 3.902344 3.710937 7.808594 3.710937h8.105469c5.589843 0 10.21875 4.308594 10.644531 9.878906zm0 0"/>
    <path d="m96.003906 106.679688c-29.417968 0-53.332031-23.914063-53.332031-53.332032 0-29.421875 23.914063-53.3359372 53.332031-53.3359372 29.417969 0 53.332032 23.9140622 53.332032 53.3359372 0 29.417969-23.914063 53.332032-53.332032 53.332032zm0-85.332032c-17.644531 0-32 14.355469-32 32 0 17.640625 14.355469 32 32 32 17.640625 0 32-14.359375 32-32 0-17.644531-14.359375-32-32-32zm0 0"/>
    <path d="m309.335938 448.011719h-64c-17.640626 0-32-14.355469-32-32v-384c0-17.640625 14.359374-32.0000002 32-32.0000002h220.609374c5.886719 0 10.667969 4.7812502 10.667969 10.6679692 0 5.886718-4.78125 10.667968-10.667969 10.667968h-220.609374c-5.867188 0-10.664063 4.796875-10.664063 10.664063v384c0 5.867187 4.796875 10.667969 10.664063 10.667969h64c5.890624 0 10.667968 4.777343 10.667968 10.667968 0 5.886719-4.777344 10.664063-10.667968 10.664063zm0 0"/>
</svg>