<?xml version="1.0" encoding="UTF-8"?>
<svg xmlns="http://www.w3.org/2000/svg" xmlns:xlink="http://www.w3.org/1999/xlink" width="100px" height="100px" viewBox="0 0 100 100" version="1.1">
<defs>
<filter id="alpha" filterUnits="objectBoundingBox" x="0%" y="0%" width="100%" height="100%">
  <feColorMatrix type="matrix" in="SourceGraphic" values="0 0 0 0 1 0 0 0 0 1 0 0 0 0 1 0 0 0 1 0"/>
</filter>
<mask id="mask0">
  <g filter="url(#alpha)">
<rect x="0" y="0" width="100" height="100" style="fill:rgb(0%,0%,0%);fill-opacity:0.301961;stroke:none;"/>
  </g>
</mask>
<clipPath id="clip1">
  <rect x="0" y="0" width="100" height="100"/>
</clipPath>
<g id="surface5" clip-path="url(#clip1)">
<path style=" stroke:none;fill-rule:nonzero;fill:rgb(14.117647%,17.254902%,53.333333%);fill-opacity:1;" d="M 29.453125 31.25 C 25.703125 31.25 22.65625 34.296875 22.65625 38.046875 L 22.65625 64.21875 L 28.671875 60.9375 L 70.546875 60.9375 C 72.1875 60.9375 73.4375 59.609375 73.4375 58.046875 L 73.4375 31.25 Z M 29.453125 31.25 "/>
</g>
<mask id="mask1">
  <g filter="url(#alpha)">
<rect x="0" y="0" width="100" height="100" style="fill:rgb(0%,0%,0%);fill-opacity:0.2;stroke:none;"/>
  </g>
</mask>
<clipPath id="clip2">
  <rect x="0" y="0" width="100" height="100"/>
</clipPath>
<g id="surface8" clip-path="url(#clip2)">
<path style=" stroke:none;fill-rule:nonzero;fill:rgb(14.117647%,17.254902%,53.333333%);fill-opacity:1;" d="M 72.65625 35.15625 L 72.65625 61.09375 L 80.078125 76.40625 L 87.5 61.09375 L 87.5 35.15625 Z M 72.65625 35.15625 "/>
</g>
<mask id="mask2">
  <g filter="url(#alpha)">
<rect x="0" y="0" width="100" height="100" style="fill:rgb(0%,0%,0%);fill-opacity:0.2;stroke:none;"/>
  </g>
</mask>
<clipPath id="clip3">
  <rect x="0" y="0" width="100" height="100"/>
</clipPath>
<g id="surface11" clip-path="url(#clip3)">
<path style=" stroke:none;fill-rule:nonzero;fill:rgb(14.117647%,17.254902%,53.333333%);fill-opacity:1;" d="M 78.125 31.25 L 82.8125 31.25 L 82.8125 60.9375 L 78.125 60.9375 Z M 78.125 31.25 "/>
</g>
<mask id="mask3">
  <g filter="url(#alpha)">
<rect x="0" y="0" width="100" height="100" style="fill:rgb(0%,0%,0%);fill-opacity:0.2;stroke:none;"/>
  </g>
</mask>
<clipPath id="clip4">
  <rect x="0" y="0" width="100" height="100"/>
</clipPath>
<g id="surface14" clip-path="url(#clip4)">
<path style=" stroke:none;fill-rule:nonzero;fill:rgb(14.117647%,17.254902%,53.333333%);fill-opacity:1;" d="M 67.96875 35.15625 L 67.96875 28.90625 L 82.8125 28.90625 L 82.8125 35.15625 Z M 67.96875 35.15625 "/>
</g>
<mask id="mask4">
  <g filter="url(#alpha)">
<rect x="0" y="0" width="100" height="100" style="fill:rgb(0%,0%,0%);fill-opacity:0.2;stroke:none;"/>
  </g>
</mask>
<clipPath id="clip5">
  <rect x="0" y="0" width="100" height="100"/>
</clipPath>
<g id="surface17" clip-path="url(#clip5)">
<path style="fill:none;stroke-width:2;stroke-linecap:round;stroke-linejoin:round;stroke:rgb(14.117647%,17.254902%,53.333333%);stroke-opacity:1;stroke-miterlimit:10;" d="M 49.1 88.7 L 52.6 85.8 C 52.9 85.6 53.2 85.8 53.2 86.2 L 53.2 88.8 C 53.2 89.2 53.5 89.4 53.8 89.2 L 58.4 85.4 C 58.7 85.2 59 85.4 59 85.8 L 59 88.7 C 59 88.7 59.2 89.3 59.5 89.1 L 63.9 85.5 C 64.2 85.3 64 85.9 64 85.9 L 64 88.9 C 64 89.3 64.3 89.5 64.6 89.3 L 69.2 85.5 C 69.5 85.3 69.8 85.5 69.8 85.9 L 69.8 88.6 C 69.8 89 70.1 89.2 70.4 89 L 74.2 85.9 C 74.5 85.7 74.8 85.9 74.8 86.3 L 74.8 88.8 C 74.8 89.2 75.1 89.4 75.4 89.2 L 79.1 86.2 " transform="matrix(0.78125,0,0,0.78125,0,0)"/>
</g>
<mask id="mask5">
  <g filter="url(#alpha)">
<rect x="0" y="0" width="100" height="100" style="fill:rgb(0%,0%,0%);fill-opacity:0.2;stroke:none;"/>
  </g>
</mask>
<clipPath id="clip6">
  <rect x="0" y="0" width="100" height="100"/>
</clipPath>
<g id="surface20" clip-path="url(#clip6)">
<path style="fill:none;stroke-width:2;stroke-linecap:round;stroke-linejoin:round;stroke:rgb(14.117647%,17.254902%,53.333333%);stroke-opacity:1;stroke-miterlimit:10;" d="M 49.8 59 L 78 59 " transform="matrix(0.78125,0,0,0.78125,0,0)"/>
</g>
<mask id="mask6">
  <g filter="url(#alpha)">
<rect x="0" y="0" width="100" height="100" style="fill:rgb(0%,0%,0%);fill-opacity:0.2;stroke:none;"/>
  </g>
</mask>
<clipPath id="clip7">
  <rect x="0" y="0" width="100" height="100"/>
</clipPath>
<g id="surface23" clip-path="url(#clip7)">
<path style="fill:none;stroke-width:2;stroke-linecap:round;stroke-linejoin:round;stroke:rgb(14.117647%,17.254902%,53.333333%);stroke-opacity:1;stroke-miterlimit:10;" d="M 49.8 71 L 78 71 " transform="matrix(0.78125,0,0,0.78125,0,0)"/>
</g>
<mask id="mask7">
  <g filter="url(#alpha)">
<rect x="0" y="0" width="100" height="100" style="fill:rgb(0%,0%,0%);fill-opacity:0.2;stroke:none;"/>
  </g>
</mask>
<clipPath id="clip8">
  <rect x="0" y="0" width="100" height="100"/>
</clipPath>
<g id="surface26" clip-path="url(#clip8)">
<path style="fill:none;stroke-width:2;stroke-linecap:round;stroke-linejoin:round;stroke:rgb(14.117647%,17.254902%,53.333333%);stroke-opacity:1;stroke-miterlimit:10;" d="M 49.8 77 L 63.9 77 " transform="matrix(0.78125,0,0,0.78125,0,0)"/>
</g>
<mask id="mask8">
  <g filter="url(#alpha)">
<rect x="0" y="0" width="100" height="100" style="fill:rgb(0%,0%,0%);fill-opacity:0.2;stroke:none;"/>
  </g>
</mask>
<clipPath id="clip9">
  <rect x="0" y="0" width="100" height="100"/>
</clipPath>
<g id="surface29" clip-path="url(#clip9)">
<path style="fill:none;stroke-width:2;stroke-linecap:round;stroke-linejoin:round;stroke:rgb(14.117647%,17.254902%,53.333333%);stroke-opacity:1;stroke-miterlimit:10;" d="M 49.8 65 L 78 65 " transform="matrix(0.78125,0,0,0.78125,0,0)"/>
</g>
</defs>
<g id="surface1">
<path style=" stroke:none;fill-rule:nonzero;fill:rgb(34.509804%,62.352941%,100%);fill-opacity:1;" d="M 70.546875 60.9375 L 28.671875 60.9375 L 17.96875 66.71875 L 17.96875 60.9375 L 10.703125 60.9375 C 9.0625 60.9375 7.8125 59.609375 7.8125 58.046875 L 7.8125 13.828125 C 7.8125 12.1875 9.140625 10.9375 10.703125 10.9375 L 70.546875 10.9375 C 72.1875 10.9375 73.4375 12.265625 73.4375 13.828125 L 73.4375 58.046875 C 73.4375 59.609375 72.109375 60.9375 70.546875 60.9375 Z M 70.546875 60.9375 "/>
<path style="fill:none;stroke-width:2;stroke-linecap:round;stroke-linejoin:round;stroke:rgb(14.117647%,17.254902%,53.333333%);stroke-opacity:1;stroke-miterlimit:10;" d="M 26.8 31 L 78 31 " transform="matrix(0.78125,0,0,0.78125,0,0)"/>
<path style="fill:none;stroke-width:2;stroke-linecap:round;stroke-linejoin:round;stroke:rgb(14.117647%,17.254902%,53.333333%);stroke-opacity:1;stroke-miterlimit:10;" d="M 26.8 50.3 L 78 50.3 " transform="matrix(0.78125,0,0,0.78125,0,0)"/>
<path style="fill:none;stroke-width:2;stroke-linecap:round;stroke-linejoin:round;stroke:rgb(14.117647%,17.254902%,53.333333%);stroke-opacity:1;stroke-miterlimit:10;" d="M 26.8 60 L 52.4 60 " transform="matrix(0.78125,0,0,0.78125,0,0)"/>
<path style="fill:none;stroke-width:2;stroke-linecap:round;stroke-linejoin:round;stroke:rgb(14.117647%,17.254902%,53.333333%);stroke-opacity:1;stroke-miterlimit:10;" d="M 26.8 40.7 L 78 40.7 " transform="matrix(0.78125,0,0,0.78125,0,0)"/>
<path style="fill:none;stroke-width:2;stroke-linecap:round;stroke-linejoin:round;stroke:rgb(14.117647%,17.254902%,53.333333%);stroke-opacity:1;stroke-miterlimit:10;" d="M 90.3 78 L 36.7 78 L 23 85.4 L 23 78 L 13.7 78 C 11.6 78 10 76.3 10 74.3 L 10 17.7 C 10 15.6 11.7 14 13.7 14 L 90.3 14 C 92.4 14 94 15.7 94 17.7 L 94 74.3 C 94 76.3 92.3 78 90.3 78 Z M 90.3 78 " transform="matrix(0.78125,0,0,0.78125,0,0)"/>
<use xlink:href="#surface5" mask="url(#mask0)"/>
<path style="fill-rule:nonzero;fill:rgb(100%,100%,100%);fill-opacity:1;stroke-width:2;stroke-linecap:round;stroke-linejoin:round;stroke:rgb(14.117647%,17.254902%,53.333333%);stroke-opacity:1;stroke-miterlimit:10;" d="M 37.7 109 L 91.3 109 L 105 116.4 L 105 109 L 114.3 109 C 116.4 109 118 107.3 118 105.3 L 118 48.7 C 118 46.6 116.3 45 114.3 45 L 37.7 45 C 35.6 45 34 46.7 34 48.7 L 34 105.3 C 34 107.3 35.7 109 37.7 109 Z M 37.7 109 " transform="matrix(0.78125,0,0,0.78125,0,0)"/>
<use xlink:href="#surface8" mask="url(#mask1)"/>
<path style=" stroke:none;fill-rule:nonzero;fill:rgb(100%,100%,100%);fill-opacity:1;" d="M 82.8125 31.25 L 82.8125 60.625 L 75.390625 75.9375 L 67.96875 60.625 L 67.96875 31.25 Z M 82.8125 31.25 "/>
<path style=" stroke:none;fill-rule:nonzero;fill:rgb(100%,76.862745%,3.137255%);fill-opacity:1;" d="M 67.96875 60.9375 L 67.96875 31.25 L 82.8125 31.25 L 82.8125 60.9375 Z M 67.96875 60.9375 "/>
<use xlink:href="#surface11" mask="url(#mask2)"/>
<path style=" stroke:none;fill-rule:nonzero;fill:rgb(36.862745%,38.039216%,63.921569%);fill-opacity:1;" d="M 71.640625 69.53125 L 74.765625 76.015625 L 77.890625 69.53125 Z M 71.640625 69.53125 "/>
<path style="fill:none;stroke-width:2;stroke-linecap:round;stroke-linejoin:round;stroke:rgb(14.117647%,17.254902%,53.333333%);stroke-opacity:1;stroke-miterlimit:10;" d="M 106 40 L 106 77.6 L 96.5 97.2 L 87 77.6 L 87 40 Z M 106 40 " transform="matrix(0.78125,0,0,0.78125,0,0)"/>
<path style="fill-rule:nonzero;fill:rgb(95.294118%,52.941176%,49.411765%);fill-opacity:1;stroke-width:2;stroke-linecap:round;stroke-linejoin:round;stroke:rgb(14.117647%,17.254902%,53.333333%);stroke-opacity:1;stroke-miterlimit:10;" d="M 106 40 L 106 31.4 C 106 29 104 27 101.6 27 L 91.4 27 C 89 27 87 29 87 31.4 L 87 40 Z M 106 40 " transform="matrix(0.78125,0,0,0.78125,0,0)"/>
<path style="fill:none;stroke-width:2;stroke-linecap:round;stroke-linejoin:round;stroke:rgb(14.117647%,17.254902%,53.333333%);stroke-opacity:1;stroke-miterlimit:10;" d="M 100 62 L 100 41 " transform="matrix(0.78125,0,0,0.78125,0,0)"/>
<path style="fill:none;stroke-width:2;stroke-linecap:round;stroke-linejoin:round;stroke:rgb(14.117647%,17.254902%,53.333333%);stroke-opacity:1;stroke-miterlimit:10;" d="M 100 78 L 100 69 " transform="matrix(0.78125,0,0,0.78125,0,0)"/>
<path style=" stroke:none;fill-rule:nonzero;fill:rgb(100%,100%,100%);fill-opacity:1;" d="M 67.96875 35.15625 L 67.96875 28.90625 L 82.8125 28.90625 L 82.8125 35.15625 Z M 67.96875 35.15625 "/>
<use xlink:href="#surface14" mask="url(#mask3)"/>
<path style="fill:none;stroke-width:2;stroke-linecap:round;stroke-linejoin:round;stroke:rgb(14.117647%,17.254902%,53.333333%);stroke-opacity:1;stroke-miterlimit:10;" d="M 92.5 31.5 L 100.5 31.5 L 100.5 50.5 L 92.5 50.5 Z M 92.5 31.5 " transform="matrix(0.000000000000000048,-0.78125,0.78125,0.000000000000000048,43.359375,107.421875)"/>
<use xlink:href="#surface17" mask="url(#mask4)"/>
<use xlink:href="#surface20" mask="url(#mask5)"/>
<use xlink:href="#surface23" mask="url(#mask6)"/>
<use xlink:href="#surface26" mask="url(#mask7)"/>
<use xlink:href="#surface29" mask="url(#mask8)"/>
</g>
</svg>
