<?xml version="1.0" encoding="UTF-8"?>
<svg xmlns="http://www.w3.org/2000/svg" xmlns:xlink="http://www.w3.org/1999/xlink" width="30px" height="30px" viewBox="0 0 35 35" version="1.1">
<g id="surface1">
<path style=" stroke:none;fill-rule:nonzero;fill:rgb(100%,100%,100%);fill-opacity:1;" d="M 34.285156 26.460938 C 34.285156 28.40625 32.691406 30 30.742188 30 L 4.257812 30 C 2.308594 30 0.714844 28.40625 0.714844 26.460938 L 0.714844 8.539062 C 0.714844 6.59375 2.308594 5 4.257812 5 L 30.742188 5 C 32.691406 5 34.285156 6.59375 34.285156 8.539062 Z M 34.285156 26.460938 "/>
<path style=" stroke:none;fill-rule:nonzero;fill:rgb(83.529412%,2.745098%,2.745098%);fill-opacity:1;" d="M 4.257812 30 L 5 30 L 5 11.113281 L 17.492188 21.171875 L 29.980469 11.113281 L 29.980469 30 L 30.742188 30 C 32.566406 30 34.082031 28.605469 34.265625 26.828125 L 34.265625 8.539062 C 34.265625 6.59375 32.671875 5 30.726562 5 L 17.492188 15.695312 L 4.257812 5 C 2.308594 5 0.714844 6.59375 0.714844 8.539062 L 0.714844 26.460938 C 0.714844 28.40625 2.308594 30 4.257812 30 Z M 4.257812 30 "/>
<path style=" stroke:none;fill-rule:nonzero;fill:rgb(0%,0%,0%);fill-opacity:1;" d="M 30.742188 4.285156 L 4.257812 4.285156 C 1.910156 4.285156 0 6.195312 0 8.539062 L 0 26.460938 C 0 28.804688 1.910156 30.714844 4.257812 30.714844 L 30.742188 30.714844 C 33.089844 30.714844 35 28.804688 35 26.460938 L 35 8.539062 C 35 6.195312 33.089844 4.285156 30.742188 4.285156 Z M 28.703125 5.714844 L 17.492188 14.777344 L 6.277344 5.714844 Z M 29.265625 29.285156 L 5.714844 29.285156 L 5.714844 12.605469 L 17.042969 21.730469 C 17.304688 21.941406 17.675781 21.941406 17.9375 21.730469 L 29.265625 12.605469 Z M 33.570312 26.460938 C 33.570312 28.019531 32.304688 29.285156 30.742188 29.285156 L 30.695312 29.285156 L 30.695312 11.113281 C 30.695312 10.835938 30.539062 10.585938 30.289062 10.46875 C 30.039062 10.347656 29.746094 10.382812 29.53125 10.554688 L 17.492188 20.257812 L 5.449219 10.554688 C 5.234375 10.382812 4.941406 10.347656 4.691406 10.46875 C 4.445312 10.585938 4.285156 10.835938 4.285156 11.113281 L 4.285156 29.285156 L 4.257812 29.285156 C 2.695312 29.285156 1.429688 28.019531 1.429688 26.460938 L 1.429688 8.539062 C 1.429688 7.0625 2.570312 5.847656 4.015625 5.722656 L 17.042969 16.253906 C 17.171875 16.359375 17.332031 16.410156 17.492188 16.410156 C 17.648438 16.410156 17.808594 16.359375 17.9375 16.253906 L 30.964844 5.722656 C 32.421875 5.835938 33.570312 7.054688 33.570312 8.539062 Z M 33.570312 26.460938 "/>
<path style=" stroke:none;fill-rule:nonzero;fill:rgb(0%,0%,0%);fill-opacity:1;" d="M 27.242188 17.984375 C 27.402344 17.984375 27.558594 17.933594 27.691406 17.828125 L 27.941406 17.625 C 28.246094 17.378906 28.292969 16.929688 28.046875 16.621094 C 27.796875 16.316406 27.347656 16.265625 27.042969 16.515625 L 26.792969 16.714844 C 26.484375 16.964844 26.4375 17.414062 26.6875 17.722656 C 26.828125 17.894531 27.035156 17.984375 27.242188 17.984375 Z M 27.242188 17.984375 "/>
<path style=" stroke:none;fill-rule:nonzero;fill:rgb(0%,0%,0%);fill-opacity:1;" d="M 20.339844 23.519531 C 20.496094 23.519531 20.65625 23.46875 20.789062 23.359375 L 25.894531 19.28125 C 26.203125 19.03125 26.25 18.582031 26 18.277344 C 25.753906 17.96875 25.304688 17.921875 24.996094 18.171875 L 19.890625 22.25 C 19.582031 22.496094 19.535156 22.949219 19.785156 23.253906 C 19.925781 23.429688 20.132812 23.519531 20.339844 23.519531 Z M 20.339844 23.519531 "/>
</g>
</svg>
