<?xml version="1.0" encoding="UTF-8"?>
<svg xmlns="http://www.w3.org/2000/svg" xmlns:xlink="http://www.w3.org/1999/xlink" width="120px" height="120px" viewBox="0 0 35 35" version="1.1">
<g id="surface1">
<path style=" stroke:none;fill-rule:nonzero;fill:rgb(4.705882%,50.196078%,82.352941%);fill-opacity:1;" d="M 20.382812 24.429688 L 34.277344 24.429688 L 34.277344 34.296875 L 20.382812 34.296875 Z M 20.382812 24.429688 "/>
<path style=" stroke:none;fill-rule:nonzero;fill:rgb(53.333333%,80.392157%,20%);fill-opacity:1;" d="M 3.117188 19.742188 L 3.117188 17.652344 L 12.011719 17.652344 L 12.011719 21.890625 L 9.738281 21.890625 "/>
<path style=" stroke:none;fill-rule:nonzero;fill:rgb(53.333333%,80.392157%,20%);fill-opacity:1;" d="M 0.726562 19.980469 L 9.617188 19.980469 L 9.617188 24.21875 L 0.726562 24.21875 Z M 0.726562 19.980469 "/>
<path style=" stroke:none;fill-rule:nonzero;fill:rgb(100%,100%,100%);fill-opacity:1;" d="M 33.117188 10.011719 L 27.085938 10.011719 L 27.085938 0.726562 L 34.230469 0.726562 L 34.230469 8.132812 "/>
<path style=" stroke:none;fill-rule:nonzero;fill:rgb(99.607843%,73.333333%,62.745098%);fill-opacity:1;" d="M 23.929688 13.601562 L 23.929688 11.519531 C 23.929688 7.976562 21.054688 5.105469 17.511719 5.105469 C 13.96875 5.105469 11.097656 7.976562 11.097656 11.519531 L 11.070312 11.519531 L 11.070312 13.601562 C 10.1875 13.601562 9.472656 14.316406 9.472656 15.203125 C 9.472656 16.085938 10.1875 16.800781 11.070312 16.800781 L 11.070312 17.996094 C 11.148438 19.003906 11.640625 19.902344 12.382812 20.390625 L 16.25 22.601562 C 17.027344 23.117188 17.972656 23.117188 18.75 22.601562 L 22.605469 20.390625 C 23.347656 19.902344 23.851562 19.003906 23.929688 17.996094 L 23.929688 16.800781 C 24.8125 16.800781 25.527344 16.085938 25.527344 15.203125 C 25.527344 14.316406 24.8125 13.601562 23.929688 13.601562 Z M 23.929688 13.601562 "/>
<path style=" stroke:none;fill-rule:nonzero;fill:rgb(99.607843%,73.333333%,62.745098%);fill-opacity:1;" d="M 14.621094 21.804688 L 14.621094 23.195312 C 14.621094 23.660156 14.339844 24.078125 13.914062 24.257812 L 9.316406 26.171875 C 8.34375 26.578125 7.710938 27.675781 7.710938 28.730469 L 7.710938 34.273438 L 27.289062 34.273438 L 27.289062 28.730469 C 27.289062 27.675781 26.65625 26.578125 25.683594 26.171875 L 21.085938 24.257812 C 20.660156 24.078125 20.378906 23.660156 20.378906 23.195312 L 20.378906 21.804688 Z M 14.621094 21.804688 "/>
<path style=" stroke:none;fill-rule:nonzero;fill:rgb(100%,100%,100%);fill-opacity:1;" d="M 25.683594 26.171875 L 21.085938 24.257812 C 20.953125 24.199219 20.832031 24.121094 20.730469 24.019531 L 17.507812 25.738281 L 14.277344 24.015625 C 14.175781 24.117188 14.050781 24.199219 13.914062 24.257812 L 9.316406 26.171875 C 8.34375 26.578125 7.710938 27.675781 7.710938 28.730469 L 7.710938 34.273438 L 27.289062 34.273438 L 27.289062 28.730469 C 27.289062 27.675781 26.65625 26.578125 25.683594 26.171875 Z M 25.683594 26.171875 "/>
<path style=" stroke:none;fill-rule:nonzero;fill:rgb(98.431373%,76.862745%,36.862745%);fill-opacity:1;" d="M 23.648438 4.878906 C 22.4375 3.335938 21.15625 3.007812 20.207031 3.46875 C 19.453125 2.824219 18.324219 2.183594 16.4375 2.183594 C 12.179688 2.183594 9.847656 5.449219 9.847656 8.355469 C 9.847656 11.453125 11.09375 13.429688 11.09375 13.429688 C 11.09375 13.429688 11.558594 10.167969 14.75 10.167969 C 16.882812 10.167969 18.171875 9.320312 19.066406 8.28125 C 19.449219 9.273438 21.292969 9.691406 22.019531 10.332031 C 23.457031 11.601562 23.925781 12.59375 23.925781 12.59375 C 23.925781 12.59375 26.214844 8.148438 23.648438 4.878906 Z M 23.648438 4.878906 "/>
<path style=" stroke:none;fill-rule:nonzero;fill:rgb(100%,100%,100%);fill-opacity:1;" d="M 14.28125 24.015625 L 15.71875 27.453125 L 17.503906 25.738281 Z M 14.28125 24.015625 "/>
<path style=" stroke:none;fill-rule:nonzero;fill:rgb(100%,100%,100%);fill-opacity:1;" d="M 20.726562 24.015625 L 19.289062 27.453125 L 17.503906 25.738281 Z M 20.726562 24.015625 "/>
<path style=" stroke:none;fill-rule:nonzero;fill:rgb(4.705882%,50.196078%,82.352941%);fill-opacity:1;" d="M 18.054688 28.25 L 19.042969 27.261719 L 17.511719 25.734375 L 15.980469 27.261719 L 16.96875 28.25 Z M 18.054688 28.25 "/>
<path style=" stroke:none;fill-rule:nonzero;fill:rgb(6.27451%,72.941176%,98.823529%);fill-opacity:1;" d="M 18.90625 34.273438 L 18.0625 28.25 L 16.945312 28.25 L 16.101562 34.273438 Z M 18.90625 34.273438 "/>
<path style=" stroke:none;fill-rule:nonzero;fill:rgb(0%,0%,0%);fill-opacity:1;" d="M 34.230469 10.726562 L 27.085938 10.726562 C 26.691406 10.726562 26.371094 10.40625 26.371094 10.011719 L 26.371094 0.726562 C 26.371094 0.332031 26.691406 0.0117188 27.085938 0.0117188 L 34.230469 0.0117188 C 34.625 0.0117188 34.945312 0.332031 34.945312 0.726562 L 34.945312 10.011719 C 34.945312 10.40625 34.625 10.726562 34.230469 10.726562 Z M 27.800781 9.296875 L 33.515625 9.296875 L 33.515625 1.441406 L 27.800781 1.441406 Z M 27.800781 9.296875 "/>
<path style=" stroke:none;fill-rule:nonzero;fill:rgb(0%,0%,0%);fill-opacity:1;" d="M 32.148438 5.214844 L 29.167969 5.214844 C 28.773438 5.214844 28.453125 4.894531 28.453125 4.5 C 28.453125 4.105469 28.773438 3.785156 29.167969 3.785156 L 32.148438 3.785156 C 32.542969 3.785156 32.863281 4.105469 32.863281 4.5 C 32.863281 4.894531 32.542969 5.214844 32.148438 5.214844 Z M 32.148438 5.214844 "/>
<path style=" stroke:none;fill-rule:nonzero;fill:rgb(0%,0%,0%);fill-opacity:1;" d="M 32.148438 8.691406 L 29.167969 8.691406 C 28.773438 8.691406 28.453125 8.375 28.453125 7.980469 C 28.453125 7.585938 28.773438 7.265625 29.167969 7.265625 L 32.148438 7.265625 C 32.542969 7.265625 32.863281 7.585938 32.863281 7.980469 C 32.863281 8.375 32.542969 8.691406 32.148438 8.691406 Z M 32.148438 8.691406 "/>
<path style=" stroke:none;fill-rule:nonzero;fill:rgb(0%,0%,0%);fill-opacity:1;" d="M 32.148438 6.953125 L 29.167969 6.953125 C 28.773438 6.953125 28.453125 6.632812 28.453125 6.238281 C 28.453125 5.84375 28.773438 5.523438 29.167969 5.523438 L 32.148438 5.523438 C 32.542969 5.523438 32.863281 5.84375 32.863281 6.238281 C 32.863281 6.632812 32.542969 6.953125 32.148438 6.953125 Z M 32.148438 6.953125 "/>
<path style=" stroke:none;fill-rule:nonzero;fill:rgb(0%,0%,0%);fill-opacity:1;" d="M 32.148438 3.476562 L 29.167969 3.476562 C 28.773438 3.476562 28.453125 3.15625 28.453125 2.761719 C 28.453125 2.367188 28.773438 2.046875 29.167969 2.046875 L 32.148438 2.046875 C 32.542969 2.046875 32.863281 2.367188 32.863281 2.761719 C 32.863281 3.15625 32.542969 3.476562 32.148438 3.476562 Z M 32.148438 3.476562 "/>
<path style=" stroke:none;fill-rule:nonzero;fill:rgb(0%,0%,0%);fill-opacity:1;" d="M 20.273438 31.917969 L 20.265625 31.917969 C 19.871094 31.917969 19.550781 31.597656 19.550781 31.203125 C 19.550781 30.808594 19.871094 30.488281 20.265625 30.488281 L 20.273438 30.488281 C 20.667969 30.488281 20.988281 30.808594 20.988281 31.203125 C 20.988281 31.597656 20.667969 31.917969 20.273438 31.917969 Z M 20.273438 31.917969 "/>
<path style=" stroke:none;fill-rule:nonzero;fill:rgb(0%,0%,0%);fill-opacity:1;" d="M 25.265625 31.917969 L 22.585938 31.917969 C 22.191406 31.917969 21.871094 31.597656 21.871094 31.203125 C 21.871094 30.808594 22.191406 30.488281 22.585938 30.488281 L 25.265625 30.488281 C 25.660156 30.488281 25.980469 30.808594 25.980469 31.203125 C 25.980469 31.597656 25.660156 31.917969 25.265625 31.917969 Z M 25.265625 31.917969 "/>
<path style=" stroke:none;fill-rule:nonzero;fill:rgb(0%,0%,0%);fill-opacity:1;" d="M 0.722656 34.988281 L 0.714844 34.988281 C 0.320312 34.988281 0 34.667969 0 34.273438 C 0 33.878906 0.320312 33.558594 0.714844 33.558594 L 0.722656 33.558594 C 1.117188 33.558594 1.4375 33.878906 1.4375 34.273438 C 1.4375 34.667969 1.117188 34.988281 0.722656 34.988281 Z M 0.722656 34.988281 "/>
<path style=" stroke:none;fill-rule:nonzero;fill:rgb(0%,0%,0%);fill-opacity:1;" d="M 34.285156 34.988281 L 34.277344 34.988281 C 33.882812 34.988281 33.5625 34.667969 33.5625 34.273438 C 33.5625 33.878906 33.882812 33.558594 34.277344 33.558594 L 34.285156 33.558594 C 34.679688 33.558594 35 33.878906 35 34.273438 C 35 34.667969 34.679688 34.988281 34.285156 34.988281 Z M 34.285156 34.988281 "/>
<path style=" stroke:none;fill-rule:nonzero;fill:rgb(0%,0%,0%);fill-opacity:1;" d="M 20.105469 16.085938 C 19.664062 16.085938 19.304688 15.726562 19.304688 15.285156 C 19.304688 14.847656 19.664062 14.488281 20.105469 14.488281 C 20.546875 14.488281 20.902344 14.847656 20.902344 15.285156 C 20.902344 15.726562 20.546875 16.085938 20.105469 16.085938 Z M 20.105469 16.085938 "/>
<path style=" stroke:none;fill-rule:nonzero;fill:rgb(0%,0%,0%);fill-opacity:1;" d="M 14.894531 16.085938 C 14.453125 16.085938 14.097656 15.726562 14.097656 15.285156 C 14.097656 14.847656 14.453125 14.488281 14.894531 14.488281 C 15.335938 14.488281 15.695312 14.847656 15.695312 15.285156 C 15.695312 15.726562 15.335938 16.085938 14.894531 16.085938 Z M 14.894531 16.085938 "/>
<path style=" stroke:none;fill-rule:nonzero;fill:rgb(0%,0%,0%);fill-opacity:1;" d="M 17.503906 19.980469 C 16.722656 19.980469 16.089844 19.347656 16.089844 18.566406 C 16.089844 18.171875 16.410156 17.851562 16.804688 17.851562 L 18.199219 17.851562 C 18.59375 17.851562 18.914062 18.171875 18.914062 18.566406 C 18.914062 19.347656 18.28125 19.980469 17.503906 19.980469 Z M 17.503906 19.980469 "/>
<path style=" stroke:none;fill-rule:nonzero;fill:rgb(0%,0%,0%);fill-opacity:1;" d="M 11.289062 21.175781 L 10.332031 21.175781 L 10.332031 19.980469 C 10.332031 19.585938 10.011719 19.265625 9.617188 19.265625 L 3.832031 19.265625 L 3.832031 18.363281 L 8.71875 18.363281 C 9.113281 18.363281 9.433594 18.046875 9.433594 17.652344 C 9.433594 17.257812 9.113281 16.9375 8.71875 16.9375 L 3.117188 16.9375 C 2.722656 16.9375 2.402344 17.257812 2.402344 17.652344 L 2.402344 19.265625 L 0.726562 19.265625 C 0.332031 19.265625 0.0117188 19.585938 0.0117188 19.980469 L 0.0117188 24.21875 C 0.0117188 24.613281 0.332031 24.933594 0.726562 24.933594 L 9.617188 24.933594 C 10.011719 24.933594 10.332031 24.613281 10.332031 24.21875 L 10.332031 22.605469 L 11.289062 22.605469 C 11.683594 22.605469 12.003906 22.285156 12.003906 21.890625 C 12.003906 21.496094 11.683594 21.175781 11.289062 21.175781 Z M 8.902344 23.503906 L 1.4375 23.503906 L 1.4375 20.695312 L 8.902344 20.695312 Z M 8.902344 23.503906 "/>
<path style=" stroke:none;fill-rule:nonzero;fill:rgb(0%,0%,0%);fill-opacity:1;" d="M 34.277344 23.714844 L 31.515625 23.714844 L 31.515625 21.964844 C 31.515625 21.570312 31.195312 21.25 30.804688 21.25 L 23.855469 21.25 C 23.460938 21.25 23.140625 21.570312 23.140625 21.964844 L 23.140625 23.714844 L 21.644531 23.714844 L 21.363281 23.597656 C 21.199219 23.53125 21.09375 23.371094 21.09375 23.195312 L 21.09375 22.082031 L 22.960938 21.011719 C 22.972656 21.003906 22.984375 20.996094 23 20.988281 C 23.933594 20.371094 24.546875 19.273438 24.640625 18.050781 C 24.640625 18.03125 24.644531 18.015625 24.644531 17.996094 L 24.644531 17.402344 C 25.570312 17.101562 26.242188 16.230469 26.242188 15.203125 C 26.242188 14.175781 25.570312 13.300781 24.644531 13 L 24.644531 12.75 C 25.0625 11.84375 26.757812 7.6875 24.207031 4.4375 L 24.210938 4.4375 C 23.027344 2.929688 21.609375 2.292969 20.332031 2.65625 C 19.253906 1.859375 17.976562 1.46875 16.4375 1.46875 C 11.867188 1.46875 9.132812 4.96875 9.132812 8.355469 C 9.132812 10.542969 9.71875 12.207031 10.121094 13.09375 C 9.316406 13.457031 8.757812 14.265625 8.757812 15.203125 C 8.757812 16.230469 9.429688 17.101562 10.355469 17.402344 L 10.355469 17.996094 C 10.355469 18.015625 10.359375 18.03125 10.359375 18.050781 C 10.453125 19.277344 11.0625 20.375 11.988281 20.988281 C 12.003906 20.996094 12.015625 21.003906 12.027344 21.011719 L 13.90625 22.085938 L 13.90625 23.195312 C 13.90625 23.371094 13.800781 23.53125 13.636719 23.597656 L 9.039062 25.511719 C 7.835938 26.015625 6.996094 27.335938 6.996094 28.730469 L 6.996094 33.558594 L 3.035156 33.558594 C 2.640625 33.558594 2.320312 33.878906 2.320312 34.273438 C 2.320312 34.667969 2.640625 34.988281 3.035156 34.988281 L 31.964844 34.988281 C 32.359375 34.988281 32.679688 34.667969 32.679688 34.273438 C 32.679688 33.878906 32.359375 33.558594 31.964844 33.558594 L 28.003906 33.558594 L 28.003906 28.730469 C 28.003906 27.335938 27.164062 26.015625 25.960938 25.511719 L 25.074219 25.144531 L 33.5625 25.144531 L 33.5625 28.1875 L 29.554688 28.1875 C 29.160156 28.1875 28.839844 28.507812 28.839844 28.902344 C 28.839844 29.296875 29.160156 29.617188 29.554688 29.617188 L 33.5625 29.617188 L 33.5625 32.082031 C 33.5625 32.476562 33.882812 32.796875 34.277344 32.796875 C 34.671875 32.796875 34.992188 32.476562 34.992188 32.082031 L 34.992188 24.429688 C 34.992188 24.035156 34.671875 23.714844 34.277344 23.714844 Z M 16.4375 2.894531 C 18.230469 2.894531 19.183594 3.535156 19.742188 4.011719 C 19.957031 4.195312 20.261719 4.234375 20.519531 4.113281 C 21.253906 3.753906 22.210938 4.207031 23.085938 5.320312 C 24.582031 7.226562 24.183594 9.660156 23.746094 11.082031 C 23.433594 10.707031 23.023438 10.269531 22.492188 9.796875 C 22.148438 9.492188 21.679688 9.265625 21.183594 9.023438 C 20.601562 8.738281 19.871094 8.386719 19.734375 8.027344 C 19.644531 7.792969 19.4375 7.621094 19.191406 7.578125 C 18.941406 7.535156 18.691406 7.625 18.527344 7.816406 C 17.5625 8.933594 16.363281 9.453125 14.75 9.453125 C 12.777344 9.453125 11.6875 10.519531 11.121094 11.417969 C 11.097656 11.453125 11.074219 11.492188 11.050781 11.53125 C 10.796875 10.730469 10.5625 9.644531 10.5625 8.355469 C 10.5625 5.671875 12.761719 2.894531 16.4375 2.894531 Z M 12.757812 19.785156 C 12.214844 19.414062 11.851562 18.738281 11.785156 17.96875 L 11.785156 16.800781 C 11.785156 16.40625 11.464844 16.085938 11.070312 16.085938 C 10.582031 16.085938 10.1875 15.691406 10.1875 15.203125 C 10.1875 14.714844 10.582031 14.316406 11.070312 14.316406 C 11.464844 14.316406 11.785156 13.996094 11.785156 13.601562 L 11.785156 13.527344 C 11.785156 13.523438 11.910156 12.847656 12.332031 12.179688 C 12.875 11.320312 13.6875 10.882812 14.75 10.882812 C 16.460938 10.882812 17.859375 10.386719 19 9.371094 C 19.441406 9.765625 20.023438 10.046875 20.558594 10.308594 C 20.949219 10.496094 21.347656 10.691406 21.546875 10.867188 C 22.5625 11.765625 23.050781 12.511719 23.214844 12.785156 L 23.214844 13.601562 C 23.214844 13.996094 23.535156 14.316406 23.929688 14.316406 C 24.417969 14.316406 24.8125 14.714844 24.8125 15.203125 C 24.8125 15.691406 24.417969 16.085938 23.929688 16.085938 C 23.535156 16.085938 23.214844 16.40625 23.214844 16.800781 L 23.214844 17.96875 C 23.148438 18.722656 22.773438 19.414062 22.230469 19.785156 L 18.394531 21.984375 C 18.378906 21.992188 18.367188 22 18.355469 22.007812 C 17.820312 22.359375 17.179688 22.359375 16.644531 22.007812 C 16.632812 22 16.621094 21.992188 16.605469 21.984375 Z M 17.503906 24.925781 L 15.257812 23.726562 C 15.308594 23.554688 15.335938 23.378906 15.335938 23.195312 L 15.335938 22.902344 L 15.878906 23.210938 C 16.378906 23.539062 16.941406 23.699219 17.5 23.699219 C 18.0625 23.699219 18.621094 23.539062 19.121094 23.210938 L 19.664062 22.902344 L 19.664062 23.195312 C 19.664062 23.378906 19.691406 23.558594 19.742188 23.730469 Z M 18.03125 27.261719 L 17.761719 27.535156 L 17.265625 27.535156 L 16.992188 27.261719 L 17.511719 26.742188 Z M 15.480469 33.558594 L 8.425781 33.558594 L 8.425781 28.730469 C 8.425781 27.925781 8.925781 27.109375 9.589844 26.832031 L 13.929688 25.023438 L 15.058594 27.726562 C 15.148438 27.945312 15.34375 28.101562 15.574219 28.152344 C 15.621094 28.160156 15.667969 28.167969 15.71875 28.167969 C 15.765625 28.167969 15.8125 28.160156 15.859375 28.152344 L 16.191406 28.484375 Z M 15.976562 26.214844 L 15.714844 25.589844 L 16.300781 25.902344 Z M 16.921875 33.558594 L 17.503906 29.417969 L 18.085938 33.558594 Z M 19.292969 25.589844 L 19.03125 26.214844 L 18.707031 25.902344 Z M 25.410156 26.832031 C 26.074219 27.109375 26.574219 27.925781 26.574219 28.730469 L 26.574219 33.558594 L 19.527344 33.558594 L 18.816406 28.5 L 19.164062 28.15625 C 19.203125 28.160156 19.246094 28.167969 19.289062 28.167969 C 19.335938 28.167969 19.386719 28.160156 19.433594 28.152344 C 19.664062 28.101562 19.859375 27.945312 19.949219 27.726562 L 21.078125 25.027344 Z M 30.089844 23.714844 L 24.570312 23.714844 L 24.570312 22.679688 L 30.089844 22.679688 Z M 30.089844 23.714844 "/>
<path style=" stroke:none;fill-rule:nonzero;fill:rgb(0%,0%,0%);fill-opacity:1;" d="M 5.171875 22.894531 C 4.734375 22.894531 4.375 22.539062 4.375 22.101562 C 4.375 21.660156 4.734375 21.304688 5.171875 21.304688 C 5.609375 21.304688 5.964844 21.660156 5.964844 22.101562 C 5.964844 22.539062 5.609375 22.894531 5.171875 22.894531 Z M 5.171875 22.894531 "/>
</g>
</svg>
